<svg xmlns="http://www.w3.org/2000/svg" viewBox="0 0 67.49 66.07"><title>addTocardAsset 3</title><g id="Layer_2" data-name="Layer 2"><g id="Layer_1-2" data-name="Layer 1"><polygon points="11.21 25.14 34.17 11.88 57.14 25.14 57.14 51.66 34.17 64.91 11.21 51.66 11.21 25.14" style="fill:none;stroke:#fff;stroke-miterlimit:10;stroke-width:2px"/><polyline points="57.11 25.15 34.15 38.41 11.19 25.15" style="fill:none;stroke:#fff;stroke-miterlimit:10;stroke-width:2px"/><line x1="34.14" y1="38.41" x2="34.14" y2="64.91" style="fill:none;stroke:#fff;stroke-miterlimit:10;stroke-width:2px"/><polygon points="57.14 25.14 34.19 11.9 41.61 4.91 64.56 18.16 57.14 25.14" style="fill:none;stroke:#fff;stroke-miterlimit:10;stroke-width:2px"/><polygon points="34.17 11.88 11.22 25.13 3.56 18.25 26.51 5 34.17 11.88" style="fill:none;stroke:#fff;stroke-miterlimit:10;stroke-width:2px"/><polygon points="64.66 26.56 41.68 39.82 34.15 38.41 57.13 25.14 64.66 26.56" style="fill:none;stroke:#fff;stroke-miterlimit:10;stroke-width:2px"/><polygon points="25.84 39.85 2.89 26.6 11.21 25.15 34.16 38.39 25.84 39.85" style="fill:none;stroke:#fff;stroke-miterlimit:10;stroke-width:2px"/><polygon points="39.17 12.64 39.17 1 29.02 1 29.02 12.41 22.14 12.25 33.83 32.05 46.05 12.8 39.17 12.64" style="fill:#99bf36;stroke:#fff;stroke-miterlimit:10;stroke-width:2px"/></g></g></svg>