<svg xmlns="http://www.w3.org/2000/svg" viewBox="0 0 148.59 104.38"><title>DeliveryAsset 1</title><g id="Layer_2" data-name="Layer 2"><g id="Layer_1-2" data-name="Layer 1"><path d="M147.52,52.36,122.31,23.58a4.33,4.33,0,0,0-3.26-1.48h-21V4.33A4.33,4.33,0,0,0,93.74,0H4.33A4.33,4.33,0,0,0,0,4.33V88a4.33,4.33,0,0,0,4.33,4.33h9a16.37,16.37,0,0,0,31.58,0h57.76a16.37,16.37,0,0,0,31.58,0h10A4.33,4.33,0,0,0,148.59,88V55.21A4.33,4.33,0,0,0,147.52,52.36ZM29.15,95.72A7.72,7.72,0,1,1,36.87,88,7.73,7.73,0,0,1,29.15,95.72Zm15.79-12a16.37,16.37,0,0,0-31.58,0H8.66v-75H89.41v75Zm73.55,12A7.72,7.72,0,1,1,126.22,88,7.73,7.73,0,0,1,118.5,95.72Zm21.44-12h-5.65a16.37,16.37,0,0,0-31.58,0H98.06V30.76h19l22.84,26.08Z" style="fill:#ed386b"/></g></g></svg>