<svg xmlns="http://www.w3.org/2000/svg" xmlns:xlink="http://www.w3.org/1999/xlink" viewBox="0 0 86.6 100"><defs><clipPath id="clip-path"><rect id="SVGID" x="49.83" y="47.84" width="17.42" height="21.88" transform="translate(-14.16 18.82) rotate(-16.32)" style="fill:none"/></clipPath><clipPath id="clip-path-2"><rect id="SVGID-2" data-name="SVGID" x="18.66" y="48.69" width="20.67" height="18.29" transform="translate(-32.12 79.07) rotate(-82.53)" style="fill:none"/></clipPath></defs><title>newAsset 4</title><g id="Layer_2" data-name="Layer 2"><g id="Layer_1-2" data-name="Layer 1"><polygon points="0 25 43.3 0 86.6 25 86.6 75 43.3 100 0 75 0 25" style="fill:#e6e7e8"/><polygon points="12.83 32.4 43.32 14.8 73.8 32.4 73.8 67.6 43.32 85.2 12.83 67.6 12.83 32.4" style="fill:#fff;stroke:#f6861f;stroke-miterlimit:10"/><polyline points="73.77 32.41 43.28 50.01 12.8 32.41" style="fill:#fff;stroke:#f6861f;stroke-miterlimit:10"/><line x1="43.27" y1="50.01" x2="43.27" y2="85.2" style="fill:#fff;stroke:#f6861f;stroke-miterlimit:10"/><line x1="29.87" y1="22.46" x2="59.63" y2="40.56" style="fill:#fff;stroke:#f6861f;stroke-miterlimit:10"/><g style="clip-path:url(#clip-path)"><path d="M62.28,49.63a7.52,7.52,0,0,0-11.82,3.46,13,13,0,0,0,4.35,14.85,7.87,7.87,0,0,0,6.81,1.34l.34-.11a.8.8,0,0,0,.47-.47L67,57.53a1.25,1.25,0,0,0,0-.77,12.61,12.61,0,0,0-4.73-7.13Zm-1.4,17.57a6.31,6.31,0,0,1-5.33-1.09,10.4,10.4,0,0,1-3.48-11.87,6,6,0,0,1,9.45-2.77,9.82,9.82,0,0,1,3.62,5.15c-3.49,1.48-5.29,5.95-4.26,10.58Zm0,0" style="fill:#f6861f"/></g><path d="M55.53,60a.35.35,0,0,0-.55.16.61.61,0,0,0,.2.69l.68.48a16.69,16.69,0,0,0,1.54,1l-3-.25a.35.35,0,0,0-.35.24l-.16.4a.61.61,0,0,0,.2.69l2.87,2a.35.35,0,0,0,.55-.16.6.6,0,0,0-.2-.69l-.72-.5c-.59-.42-1.11-.76-1.6-1.08l3.08.26a.35.35,0,0,0,.35-.24l.12-.29a.61.61,0,0,0-.2-.69Zm0,0" style="fill:#f6861f"/><path d="M59.35,58.75l-.53,1.31L58,59.45l.46-1.13a.53.53,0,0,0-.18-.61.31.31,0,0,0-.49.14L57.28,59l-.75-.53.5-1.22a.54.54,0,0,0-.18-.62.31.31,0,0,0-.49.14l-.7,1.73a.61.61,0,0,0,.2.69l2.87,2a.35.35,0,0,0,.55-.16L60,59.22a.54.54,0,0,0-.18-.62.31.31,0,0,0-.49.14Zm0,0" style="fill:#f6861f"/><path d="M59.27,51.18A.44.44,0,0,0,58.9,51a.38.38,0,0,0-.3.25.64.64,0,0,0,.14.66L59.8,53c.4.39.78.78,1.16,1.12h0c-.43-.22-.84-.43-1.31-.64l-1.31-.59a.36.36,0,0,0-.5.21l-.1.25a.64.64,0,0,0,.14.66l1.06,1.1c.4.42.8.82,1.17,1.17h0c-.39-.19-.9-.44-1.36-.65l-1.25-.57a.38.38,0,0,0-.53.22.67.67,0,0,0,0,.48.59.59,0,0,0,.32.34l3.12,1.22a.36.36,0,0,0,.48-.22l.12-.3a.64.64,0,0,0-.13-.65L59.74,55c-.33-.36-.64-.66-1-1h0c.43.24.8.41,1.2.59l1.36.6a.36.36,0,0,0,.5-.21l.12-.29a.64.64,0,0,0-.12-.64Zm0,0" style="fill:#f6861f"/><g style="clip-path:url(#clip-path-2)"><path d="M34.46,65.93a11.32,11.32,0,0,0,1.9-14.5,8.42,8.42,0,0,0-12.82-1.68,11,11,0,0,0-3.6,6.9c0,.14,0,.28,0,.42a1.11,1.11,0,0,0,.18.72l6.66,9.86a.87.87,0,0,0,.57.38,8.62,8.62,0,0,0,7.17-2.1ZM21.77,56.75a8.76,8.76,0,0,1,2.85-5.38,6.73,6.73,0,0,1,10.25,1.34,9.05,9.05,0,0,1-1.52,11.59A6.84,6.84,0,0,1,28.11,66c.22-4.48-2.46-8.4-6.34-9.29Zm0,0" style="fill:#f6861f"/></g><path d="M29.25,54a.52.52,0,0,0,.09-.68.39.39,0,0,0-.6-.08l-.62.54a17,17,0,0,0-1.33,1.27l1.31-3.14a.53.53,0,0,0,0-.49l-.24-.35a.39.39,0,0,0-.6-.08L24.6,53.28a.53.53,0,0,0-.09.68.39.39,0,0,0,.6.08l.65-.57c.54-.47,1-.88,1.42-1.29l-1.37,3.27a.53.53,0,0,0,0,.49l.17.26a.39.39,0,0,0,.6.08Zm0,0" style="fill:#f6861f"/><path d="M28.71,58.73l-.78-1.16.78-.68.68,1a.35.35,0,0,0,.53.07.47.47,0,0,0,.08-.6l-.68-1,.69-.6.73,1.08a.35.35,0,0,0,.53.07.47.47,0,0,0,.08-.6l-1-1.53a.39.39,0,0,0-.6-.08L27.11,57a.53.53,0,0,0-.09.68l1.08,1.6a.35.35,0,0,0,.53.07.47.47,0,0,0,.08-.6Zm0,0" style="fill:#f6861f"/><path d="M34.43,61.94a.52.52,0,0,0,.26-.34.55.55,0,0,0-.07-.43.41.41,0,0,0-.55-.14l-1.22.69c-.44.27-.88.52-1.29.79h0c.33-.37.64-.74,1-1.16l.94-1.19a.55.55,0,0,0,0-.64l-.15-.22a.41.41,0,0,0-.55-.14l-1.23.68c-.47.26-.92.52-1.32.77h0c.29-.35.67-.8,1-1.22l.91-1.13a.59.59,0,0,0,0-.68.45.45,0,0,0-.37-.2.47.47,0,0,0-.38.2l-2.11,2.89a.55.55,0,0,0,0,.63l.18.27a.41.41,0,0,0,.54.14l1.33-.71c.39-.2.74-.42,1.16-.68h0c-.35.37-.62.7-.9,1.06l-1,1.23a.56.56,0,0,0,0,.64l.17.26a.41.41,0,0,0,.53.15Zm0,0" style="fill:#f6861f"/></g></g></svg>