<svg xmlns="http://www.w3.org/2000/svg" viewBox="0 0 149.91 26.34"><title>new_faAsset 1</title><g id="Layer_2" data-name="Layer 2"><g id="Layer_1-2" data-name="Layer 1"><path d="M123.3,17.42v-.9h18.29a6.73,6.73,0,0,0,3-.66,8.12,8.12,0,0,0,4-4.25,7.49,7.49,0,0,0,.59-2.89,7.76,7.76,0,0,0-4.63-7.14,7.9,7.9,0,0,0-3.3-.66H130.35V0h10.88a9.57,9.57,0,0,1,3.6.65,7.72,7.72,0,0,1,4.48,4.57,9.83,9.83,0,0,1,.6,3.5,8.3,8.3,0,0,1-.32,2.25,9.73,9.73,0,0,1-.9,2.17A9.42,9.42,0,0,1,147.26,15a8.89,8.89,0,0,1-1.93,1.51l4.1,0v.9Z" style="fill:#6d6e71"/><path d="M20.44,17.42v-.9H83a6.73,6.73,0,0,0,3-.66,8.12,8.12,0,0,0,4-4.25,7.49,7.49,0,0,0,.59-2.89A7.76,7.76,0,0,0,85.9,1.57,7.9,7.9,0,0,0,82.6.9H71.72V0H82.6a9.57,9.57,0,0,1,3.6.65,7.72,7.72,0,0,1,4.48,4.57,9.83,9.83,0,0,1,.6,3.5A8.3,8.3,0,0,1,91,11a9.73,9.73,0,0,1-.9,2.17A9.42,9.42,0,0,1,88.63,15a8.89,8.89,0,0,1-1.93,1.51l4.1,0v.9Z" style="fill:#6d6e71"/><path d="M123.35,17.52a9.06,9.06,0,0,1-.68,3.52,8.35,8.35,0,0,1-1.88,2.8,8.6,8.6,0,0,1-2.89,1.84,10,10,0,0,1-3.68.66,9.64,9.64,0,0,1-3.18-.5,8.8,8.8,0,0,1-2.61-1.43l.66-.66a8.77,8.77,0,0,0,2.28,1.31,7.57,7.57,0,0,0,2.85.53,8.42,8.42,0,0,0,3.22-.62,8.16,8.16,0,0,0,2.62-1.7,8.05,8.05,0,0,0,1.76-2.56,7.86,7.86,0,0,0,.65-3.19l0-4.91a8.16,8.16,0,0,1-1.67,2.52,9,9,0,0,1-4.42,2.47,9.6,9.6,0,0,1-2.08.26,8.92,8.92,0,0,1-3.57-.72,9.4,9.4,0,0,1-2.91-1.94,9.22,9.22,0,0,1-2-2.84,8.41,8.41,0,0,1-.72-3.46,8.41,8.41,0,0,1,.72-3.46A9,9,0,0,1,110.71.69,9.25,9.25,0,0,1,114.28,0a9.43,9.43,0,0,1,2.06.26,9.94,9.94,0,0,1,2.25.81,9.18,9.18,0,0,1,2.12,1.49,8.6,8.6,0,0,1,1.73,2.29,11,11,0,0,1,.9,2.68A86,86,0,0,1,123.35,17.52Zm-.75-8.65a7.75,7.75,0,0,0-.66-3.2,8.33,8.33,0,0,0-1.79-2.58,8.18,8.18,0,0,0-2.63-1.72,8.67,8.67,0,0,0-6.44,0,8.11,8.11,0,0,0-4.41,4.3,7.9,7.9,0,0,0-.65,3.2,8,8,0,0,0,.65,3.22,8.32,8.32,0,0,0,13.48,2.61,8.46,8.46,0,0,0,1.79-2.61A7.85,7.85,0,0,0,122.6,8.88Z" style="fill:#6d6e71"/><path d="M100.59,0V20.89a5.33,5.33,0,0,1-.41,2.06,5.38,5.38,0,0,1-1.13,1.72,5.29,5.29,0,0,1-1.7,1.16,5.39,5.39,0,0,1-2.15.42,4.88,4.88,0,0,1-2.19-.5,5.85,5.85,0,0,1-1.73-1.28l.6-.6A5.36,5.36,0,0,0,93.27,25a3.75,3.75,0,0,0,1.93.51,4.37,4.37,0,0,0,3.24-1.39,4.79,4.79,0,0,0,.92-1.43A4.32,4.32,0,0,0,99.69,21V.75H98.27V0Z" style="fill:#6d6e71"/><path d="M138.56,22.11a1.08,1.08,0,0,1-.35.81,1.18,1.18,0,0,1-.84.33,1.13,1.13,0,0,1-.82-.33,1.1,1.1,0,0,1-.34-.81,1.14,1.14,0,0,1,1.16-1.18,1.18,1.18,0,0,1,.84.33A1.11,1.11,0,0,1,138.56,22.11Z" style="fill:#6d6e71"/><path d="M85.07,22.11a1.08,1.08,0,0,1-.35.81,1.18,1.18,0,0,1-.84.33,1.13,1.13,0,0,1-.82-.33,1.1,1.1,0,0,1-.34-.81,1.14,1.14,0,0,1,1.16-1.18,1.18,1.18,0,0,1,.84.33A1.11,1.11,0,0,1,85.07,22.11Z" style="fill:#6d6e71"/><path d="M56.45,2.62a1.08,1.08,0,0,1-.35.81,1.18,1.18,0,0,1-.84.33,1.13,1.13,0,0,1-.82-.33,1.1,1.1,0,0,1-.34-.81,1.14,1.14,0,0,1,1.16-1.18,1.18,1.18,0,0,1,.84.33A1.11,1.11,0,0,1,56.45,2.62Z" style="fill:#6d6e71"/><path d="M41.22,16.52H55.6a8.3,8.3,0,0,0,3.26-.65,8.64,8.64,0,0,0,2.7-1.78,8.48,8.48,0,0,0,1.84-2.65,8,8,0,0,0,.68-3.27,7,7,0,0,0-.65-3,8.83,8.83,0,0,0-1.67-2.44L62.47,2a10.15,10.15,0,0,1,1.79,2.86,8.59,8.59,0,0,1,.65,3.32,9.45,9.45,0,0,1-.71,3.66,9,9,0,0,1-2,3,8.92,8.92,0,0,1-2.92,1.94,9.31,9.31,0,0,1-3.6.69H40.38" style="fill:#6d6e71"/><path d="M20.62,11.47v4.47a10.1,10.1,0,0,1-.8,4,10.31,10.31,0,0,1-5.44,5.49,10,10,0,0,1-4,.81,10.11,10.11,0,0,1-4.05-.81A10.6,10.6,0,0,1,3,23.24,10.15,10.15,0,0,1,0,16v-4.5H.9v4.62a8.92,8.92,0,0,0,.74,3.62,9.29,9.29,0,0,0,2,3,9.86,9.86,0,0,0,3,2,9.1,9.1,0,0,0,3.66.74A9.19,9.19,0,0,0,14,24.68a9.41,9.41,0,0,0,5-4.94,8.85,8.85,0,0,0,.74-3.59V11.47Z" style="fill:#6d6e71"/></g></g></svg>