<svg xmlns="http://www.w3.org/2000/svg" xmlns:xlink="http://www.w3.org/1999/xlink" viewBox="0 0 95.58 75.43"><defs><radialGradient id="radial-gradient" cx="107.79" cy="1614.1" r="28.63" gradientTransform="translate(-84.87 -959.03) scale(1.23 0.63)" gradientUnits="userSpaceOnUse"><stop offset="0" stop-opacity="0.4"/><stop offset="0.18" stop-color="#262626" stop-opacity="0.2"/><stop offset="0.72" stop-color="#595a5c" stop-opacity="0.15"/><stop offset="1" stop-color="#bababa" stop-opacity="0"/></radialGradient></defs><title>222Asset 5</title><g id="Layer_2" data-name="Layer 2"><g id="Layer_1-2" data-name="Layer 1"><ellipse cx="47.79" cy="51.54" rx="47.79" ry="23.9" fill="url(#radial-gradient)"/><polygon points="47.28 31.28 47.28 0.8 20.89 16.04 20.89 46.52 47.28 31.28" fill="#9abf36" opacity="0.7"/><polygon points="47.28 30.91 20.89 15.67 20.88 15.67 20.88 46.15 47.28 61.38 47.28 61.38 47.28 30.91" fill="#3f163d" opacity="0.7"/><polygon points="73.81 16.04 47.42 0.8 47.42 0.8 47.42 31.28 73.81 46.52 73.81 46.52 73.81 16.04" fill="#f6861f" opacity="0.7"/><polygon points="73.81 46.15 73.81 15.67 47.42 30.91 47.42 61.38 73.81 46.15" fill="#ee396b" opacity="0.7"/><line x1="47.42" y1="20.34" x2="47.42" y2="30.91" fill="none" stroke="#fff" stroke-miterlimit="10"/><line x1="64.66" y1="10.39" x2="73.8" y2="15.67" fill="none" stroke="#fff" stroke-miterlimit="10"/><line x1="30.17" y1="10.39" x2="21.03" y2="15.67" fill="none" stroke="#fff" stroke-miterlimit="10"/><path d="M47.42.43" fill="none" stroke="#fff" stroke-miterlimit="10"/><line x1="47.42" y1="0.43" x2="47.42" y2="10.99" fill="none" stroke="#fff" stroke-miterlimit="10"/><line x1="47.42" y1="0.43" x2="56.57" y2="5.72" fill="none" stroke="#fff" stroke-miterlimit="10"/><line x1="47.42" y1="0.43" x2="38.27" y2="5.72" fill="none" stroke="#fff" stroke-miterlimit="10"/><path d="M47.42,30.93" fill="none" stroke="#fff" stroke-miterlimit="10"/><line x1="47.42" y1="30.93" x2="47.42" y2="20.38" fill="none" stroke="#fff" stroke-miterlimit="10"/><line x1="47.42" y1="30.93" x2="56.57" y2="25.65" fill="none" stroke="#fff" stroke-miterlimit="10"/><line x1="47.42" y1="30.93" x2="38.27" y2="25.65" fill="none" stroke="#fff" stroke-miterlimit="10"/><path d="M47.42,61.39" fill="none" stroke="#fff" stroke-miterlimit="10"/><line x1="47.42" y1="61.39" x2="47.42" y2="50.83" fill="none" stroke="#fff" stroke-miterlimit="10"/><line x1="47.42" y1="61.39" x2="56.57" y2="56.1" fill="none" stroke="#fff" stroke-miterlimit="10"/><line x1="47.42" y1="61.39" x2="38.27" y2="56.1" fill="none" stroke="#fff" stroke-miterlimit="10"/><path d="M73.81,46.18" fill="none" stroke="#fff" stroke-miterlimit="10"/><line x1="73.81" y1="46.18" x2="64.67" y2="40.9" fill="none" stroke="#fff" stroke-miterlimit="10"/><line x1="73.81" y1="46.18" x2="73.81" y2="35.61" fill="none" stroke="#fff" stroke-miterlimit="10"/><line x1="73.81" y1="46.18" x2="64.66" y2="51.46" fill="none" stroke="#fff" stroke-miterlimit="10"/><path d="M73.81,15.67" fill="none" stroke="#fff" stroke-miterlimit="10"/><line x1="73.81" y1="15.67" x2="64.67" y2="20.95" fill="none" stroke="#fff" stroke-miterlimit="10"/><line x1="73.81" y1="15.67" x2="64.66" y2="10.39" fill="none" stroke="#fff" stroke-miterlimit="10"/><line x1="73.81" y1="15.67" x2="73.81" y2="26.24" fill="none" stroke="#fff" stroke-miterlimit="10"/><path d="M21,15.67" fill="none" stroke="#fff" stroke-miterlimit="10"/><line x1="21.03" y1="15.67" x2="30.17" y2="20.95" fill="none" stroke="#fff" stroke-miterlimit="10"/><line x1="21.03" y1="15.67" x2="30.18" y2="10.39" fill="none" stroke="#fff" stroke-miterlimit="10"/><line x1="21.03" y1="15.67" x2="21.03" y2="26.24" fill="none" stroke="#fff" stroke-miterlimit="10"/><path d="M21,46.18" fill="none" stroke="#fff" stroke-miterlimit="10"/><line x1="21.03" y1="46.18" x2="30.17" y2="40.9" fill="none" stroke="#fff" stroke-miterlimit="10"/><line x1="21.03" y1="46.18" x2="21.03" y2="35.61" fill="none" stroke="#fff" stroke-miterlimit="10"/><line x1="21.03" y1="46.18" x2="30.18" y2="51.46" fill="none" stroke="#fff" stroke-miterlimit="10"/></g></g></svg>