<svg xmlns="http://www.w3.org/2000/svg" xmlns:xlink="http://www.w3.org/1999/xlink" viewBox="0 0 95.58 75.43"><defs><style>.cls-1{fill:url(#radial-gradient);}.cls-2{fill:#9abf36;}.cls-2,.cls-3,.cls-4,.cls-5{opacity:0.7;}.cls-3{fill:#3f163d;}.cls-4{fill:#f6861f;}.cls-5{fill:#ee396b;}.cls-6{fill:none;stroke:#fff;stroke-miterlimit:10;}</style><radialGradient id="radial-gradient" cx="-447.59" cy="-1150.76" r="28.63" gradientTransform="translate(598.67 772.01) scale(1.23 0.63)" gradientUnits="userSpaceOnUse"><stop offset="0" stop-opacity="0.4"/><stop offset="0.18" stop-color="#262626" stop-opacity="0.2"/><stop offset="0.72" stop-color="#595a5c" stop-opacity="0.15"/><stop offset="1" stop-color="#bababa" stop-opacity="0"/></radialGradient></defs><title>Asset 2</title><g id="Layer_2" data-name="Layer 2"><g id="Layer_1-2" data-name="Layer 1"><ellipse class="cls-1" cx="47.79" cy="51.54" rx="47.79" ry="23.9"/><polygon class="cls-2" points="47.28 31.28 47.28 0.8 20.89 16.04 20.89 46.52 47.28 31.28"/><polygon class="cls-3" points="47.28 30.91 20.89 15.67 20.88 15.67 20.88 46.15 47.28 61.38 47.28 61.38 47.28 30.91"/><polygon class="cls-4" points="73.81 16.04 47.42 0.8 47.42 0.8 47.42 31.28 73.81 46.52 73.81 46.52 73.81 16.04"/><polygon class="cls-5" points="73.81 46.15 73.81 15.67 47.42 30.91 47.42 61.38 73.81 46.15"/><line class="cls-6" x1="47.42" y1="20.34" x2="47.42" y2="30.91"/><line class="cls-6" x1="64.66" y1="10.39" x2="73.8" y2="15.67"/><line class="cls-6" x1="30.17" y1="10.39" x2="21.03" y2="15.67"/><path class="cls-6" d="M47.42.43"/><line class="cls-6" x1="47.42" y1="0.43" x2="47.42" y2="10.99"/><line class="cls-6" x1="47.42" y1="0.43" x2="56.57" y2="5.72"/><line class="cls-6" x1="47.42" y1="0.43" x2="38.27" y2="5.72"/><path class="cls-6" d="M47.42,30.93"/><line class="cls-6" x1="47.42" y1="30.93" x2="47.42" y2="20.38"/><line class="cls-6" x1="47.42" y1="30.93" x2="56.57" y2="25.65"/><line class="cls-6" x1="47.42" y1="30.93" x2="38.27" y2="25.65"/><path class="cls-6" d="M47.42,61.39"/><line class="cls-6" x1="47.42" y1="61.39" x2="47.42" y2="50.83"/><line class="cls-6" x1="47.42" y1="61.39" x2="56.57" y2="56.1"/><line class="cls-6" x1="47.42" y1="61.39" x2="38.27" y2="56.1"/><path class="cls-6" d="M73.81,46.18"/><line class="cls-6" x1="73.81" y1="46.18" x2="64.67" y2="40.9"/><line class="cls-6" x1="73.81" y1="46.18" x2="73.81" y2="35.61"/><line class="cls-6" x1="73.81" y1="46.18" x2="64.66" y2="51.46"/><path class="cls-6" d="M73.81,15.67"/><line class="cls-6" x1="73.81" y1="15.67" x2="64.67" y2="20.95"/><line class="cls-6" x1="73.81" y1="15.67" x2="64.66" y2="10.39"/><line class="cls-6" x1="73.81" y1="15.67" x2="73.81" y2="26.24"/><path class="cls-6" d="M21,15.67"/><line class="cls-6" x1="21.03" y1="15.67" x2="30.17" y2="20.95"/><line class="cls-6" x1="21.03" y1="15.67" x2="30.18" y2="10.39"/><line class="cls-6" x1="21.03" y1="15.67" x2="21.03" y2="26.24"/><path class="cls-6" d="M21,46.18"/><line class="cls-6" x1="21.03" y1="46.18" x2="30.17" y2="40.9"/><line class="cls-6" x1="21.03" y1="46.18" x2="21.03" y2="35.61"/><line class="cls-6" x1="21.03" y1="46.18" x2="30.18" y2="51.46"/></g></g></svg>