<svg xmlns="http://www.w3.org/2000/svg" viewBox="0 0 80.07 76.2"><title>order_listAsset 1</title><g id="Layer_2" data-name="Layer 2"><g id="Layer_1-2" data-name="Layer 1"><polygon points="11.85 25.9 40.55 9.33 69.26 25.9 69.26 59.05 40.55 75.62 11.85 59.05 11.85 25.9" fill="#fff" stroke="#3f163d" stroke-miterlimit="10"/><polyline points="69.22 25.91 40.52 42.49 11.82 25.91" fill="#fff" stroke="#3f163d" stroke-miterlimit="10"/><line x1="40.51" y1="42.49" x2="40.51" y2="75.62" fill="#fff" stroke="#3f163d" stroke-miterlimit="10"/><polygon points="69.26 25.9 40.57 9.35 49.84 0.62 78.53 17.17 69.26 25.9" fill="#fff" stroke="#3f163d" stroke-miterlimit="10"/><polygon points="40.55 9.33 11.87 25.89 2.29 17.29 30.97 0.72 40.55 9.33" fill="#fff" stroke="#3f163d" stroke-miterlimit="10"/><polygon points="78.66 27.68 49.93 44.26 40.52 42.49 69.24 25.91 78.66 27.68" fill="#fff" stroke="#3f163d" stroke-miterlimit="10"/><polygon points="30.13 44.28 1.44 27.73 11.85 25.91 40.53 42.47 30.13 44.28" fill="#fff" stroke="#3f163d" stroke-miterlimit="10"/></g></g></svg>