<svg xmlns="http://www.w3.org/2000/svg" viewBox="0 0 61.97 71.55"><title>cheap_logoAsset 4</title><g id="Layer_2" data-name="Layer 2"><g id="Layer_1-2" data-name="Layer 1"><polygon points="0.5 18.18 30.98 0.58 61.47 18.18 61.47 53.38 30.98 70.98 0.5 53.38 0.5 18.18" style="fill:#fff;stroke:#9abf36;stroke-miterlimit:10"/><polyline points="61.44 18.19 30.95 35.79 0.47 18.19" style="fill:#fff;stroke:#9abf36;stroke-miterlimit:10"/><line x1="30.93" y1="35.79" x2="30.93" y2="70.98" style="fill:#fff;stroke:#9abf36;stroke-miterlimit:10"/><line x1="17.54" y1="8.23" x2="47.29" y2="26.33" style="fill:#fff;stroke:#9abf36;stroke-miterlimit:10"/><path d="M36.24,43c-.88-1.84-.82-3,.86-3.84l1.67-.8c1.62-.78,2.62-.1,3.5,1.74l1.31,2.73c.89,1.84.82,3-.86,3.84l-1.67.8c-1.62.78-2.62.1-3.5-1.74Zm4.06,2.54,1.38-.67c.82-.4.75-.79.36-1.59L41,41c-.45-.94-.78-1-1.43-.72l-1.38.67c-.75.36-.79.7-.36,1.59l1.09,2.27C39.28,45.66,39.6,45.86,40.3,45.52Zm4.92-10.28,1.48-.71L47,53.9l-1.52.73Zm3.32,11.07c-.88-1.84-.82-3,.85-3.84l1.68-.81c1.62-.78,2.62-.1,3.5,1.74l1.31,2.73c.89,1.84.82,3-.86,3.84l-1.68.81c-1.62.78-2.61.09-3.49-1.75Zm4.06,2.54L54,48.19c.82-.4.75-.79.37-1.59l-1.09-2.27c-.45-.94-.79-1-1.44-.72l-1.38.66c-.75.36-.79.7-.36,1.59l1.09,2.27C51.58,49,51.9,49.19,52.6,48.85Z" style="fill:#9abf36"/><path d="M10.76,35.74c.86-1.85,1.77-2.58,3.29-1.88l1.52.7c1.47.68,1.52,1.86.66,3.71L15,41c-.86,1.85-1.77,2.58-3.29,1.88l-1.52-.7c-1.47-.68-1.52-1.86-.66-3.71Zm.39,4.64L12.4,41c.75.35,1,0,1.36-.77l1.06-2.29c.44-.95.33-1.25-.26-1.53l-1.25-.58c-.68-.32-.95-.13-1.37.77l-1.06,2.29C10.49,39.72,10.52,40.09,11.15,40.38Zm10.26-3.11,1.35.62-14,12.89-1.38-.64Zm-6.27,9.68c.86-1.85,1.77-2.59,3.28-1.88l1.52.7c1.47.68,1.52,1.86.66,3.71l-1.27,2.75c-.86,1.85-1.77,2.58-3.29,1.88l-1.52-.7c-1.47-.68-1.52-1.85-.66-3.71Zm.39,4.64,1.25.58c.75.35,1,0,1.37-.77l1.06-2.29c.44-.95.32-1.25-.27-1.53L17.69,47c-.68-.32-.95-.13-1.36.77l-1.06,2.29C14.87,50.92,14.9,51.29,15.53,51.59Z" style="fill:#9abf36"/></g></g></svg>