<svg xmlns="http://www.w3.org/2000/svg" viewBox="0 0 61.97 71.55"><title>discount_logoAsset 2</title><g id="Layer_2" data-name="Layer 2"><g id="Layer_1-2" data-name="Layer 1"><polygon points="0.5 18.18 30.98 0.58 61.47 18.18 61.47 53.38 30.98 70.98 0.5 53.38 0.5 18.18" style="fill:#fff;stroke:#3f163d;stroke-miterlimit:10"/><polyline points="61.44 18.19 30.95 35.79 0.47 18.19" style="fill:#fff;stroke:#3f163d;stroke-miterlimit:10"/><line x1="30.93" y1="35.79" x2="30.93" y2="70.98" style="fill:#fff;stroke:#3f163d;stroke-miterlimit:10"/><line x1="17.54" y1="8.23" x2="47.29" y2="26.33" style="fill:none;stroke:#3f163d;stroke-miterlimit:10"/><polygon points="50.87 59.82 50.78 24.66 19.32 6.48 14.43 9.37 45.29 27.69 45.42 63.15 50.87 59.82" style="fill:#3f163d"/><polygon points="12.87 61.19 12.96 26.02 44.42 7.84 49.46 10.28 18.6 28.59 18.47 64.06 12.87 61.19" style="fill:#3f163d"/><path d="M46.78,15.21,44,15.32a3.9,3.9,0,0,1-.14,1.44l-.06.12.09.08-.06-.1,0,0,.09.08-.06-.1-.05,0a4,4,0,0,1-1.73-.05,21.59,21.59,0,0,1-3.52-1.05C35.14,14.5,31,12.42,27.16,11A31.33,31.33,0,0,0,23.78,9.9a11,11,0,0,0-5-.27,5.62,5.62,0,0,0-4.16,3.62,8.94,8.94,0,0,0-.5,3.22,7.62,7.62,0,0,0,.84,3.65,5.24,5.24,0,0,0,2.79,2.42,7.69,7.69,0,0,0,3.79.29,26.68,26.68,0,0,0,6.56-2.13c3.38-1.49,7-3.38,10.05-4.69a24.61,24.61,0,0,1,4-1.4,6.47,6.47,0,0,1,1.29-.18,1.53,1.53,0,0,1,.51.05h0l.14-.24-.2.19.07.05.14-.24-.2.19L44,14.3l-.16.12v0L44,14.3l-.16.12h0a2.15,2.15,0,0,1,.17.91l2.76-.11,2.76-.11a7.37,7.37,0,0,0-.93-3.49,5.31,5.31,0,0,0-2.73-2.29,7.74,7.74,0,0,0-3.8-.3,26.6,26.6,0,0,0-6.58,2.12c-3.39,1.48-7,3.38-10.06,4.69a24.75,24.75,0,0,1-4,1.4,6.43,6.43,0,0,1-1.28.18,1.5,1.5,0,0,1-.49,0h0l-.12.26.2-.2-.08-.06-.12.26.2-.2-.13.14.17-.1,0,0-.13.14.17-.1a2.39,2.39,0,0,1-.16-1,3.63,3.63,0,0,1,.15-1.24l.07-.14,0,0,0,.05h0l0,0,0,.05.06,0a4.06,4.06,0,0,1,1.78,0,21.77,21.77,0,0,1,3.57,1.06c3.43,1.28,7.58,3.36,11.39,4.79A31.13,31.13,0,0,0,40,22a10.92,10.92,0,0,0,5,.28,5.75,5.75,0,0,0,2.48-1.2A5.69,5.69,0,0,0,49,18.7a9.18,9.18,0,0,0,.49-3.6Z" style="fill:#3f163d"/></g></g></svg>