<svg xmlns="http://www.w3.org/2000/svg" viewBox="0 0 61.98 61.44"><title>full_sale_logoAsset 3</title><g id="Layer_2" data-name="Layer 2"><g id="Layer_1-2" data-name="Layer 1"><polygon points="0.5 14.74 22.75 1.9 45.01 14.74 45.01 40.44 22.75 53.28 0.5 40.44 0.5 14.74" style="fill:#fff;stroke:#ee396b;stroke-miterlimit:10"/><polyline points="44.98 14.75 22.73 27.6 0.48 14.75" style="fill:#fff;stroke:#ee396b;stroke-miterlimit:10"/><line x1="22.72" y1="27.6" x2="22.72" y2="53.29" style="fill:#fff;stroke:#ee396b;stroke-miterlimit:10"/><line x1="12.94" y1="7.48" x2="34.66" y2="20.7" style="fill:#fff;stroke:#ee396b;stroke-miterlimit:10"/><text transform="translate(29 39.45)" style="font-size:16.404449462890625px;fill:#ee396b;font-family:Exo-Bold, Exo Bold;font-weight:700">$</text><text transform="translate(6.96 40.06)" style="font-size:16.404449462890625px;fill:#ee396b;font-family:Exo-Bold, Exo Bold;font-weight:700">$</text><polygon points="16.97 13.43 39.22 0.58 61.48 13.43 61.48 39.12 39.22 51.97 16.97 39.12 16.97 13.43" style="fill:#fff;stroke:#ee396b;stroke-miterlimit:10"/><polyline points="61.45 13.43 39.2 26.28 16.95 13.43" style="fill:#fff;stroke:#ee396b;stroke-miterlimit:10"/><line x1="39.19" y1="26.28" x2="39.19" y2="51.97" style="fill:#fff;stroke:#ee396b;stroke-miterlimit:10"/><line x1="29.41" y1="6.17" x2="51.13" y2="19.38" style="fill:#fff;stroke:#ee396b;stroke-miterlimit:10"/><text transform="translate(45.47 38.14)" style="font-size:16.404449462890625px;fill:#ee396b;font-family:Exo-Bold, Exo Bold;font-weight:700">$</text><text transform="translate(23.43 38.74)" style="font-size:16.404449462890625px;fill:#ee396b;font-family:Exo-Bold, Exo Bold;font-weight:700">$</text><polygon points="9.39 22.32 31.65 9.47 53.9 22.32 53.9 48.01 31.65 60.86 9.39 48.01 9.39 22.32" style="fill:#fff;stroke:#ee396b;stroke-miterlimit:10"/><polyline points="53.88 22.33 31.62 35.17 9.37 22.33" style="fill:#fff;stroke:#ee396b;stroke-miterlimit:10"/><line x1="31.61" y1="35.18" x2="31.61" y2="60.86" style="fill:#fff;stroke:#ee396b;stroke-miterlimit:10"/><line x1="21.83" y1="15.06" x2="43.55" y2="28.27" style="fill:#fff;stroke:#ee396b;stroke-miterlimit:10"/><text transform="translate(37.9 47.03)" style="font-size:16.404449462890625px;fill:#ee396b;font-family:Exo-Bold, Exo Bold;font-weight:700">$</text><text transform="translate(15.85 47.64)" style="font-size:16.404449462890625px;fill:#ee396b;font-family:Exo-Bold, Exo Bold;font-weight:700">$</text></g></g></svg>