<svg xmlns="http://www.w3.org/2000/svg" xmlns:xlink="http://www.w3.org/1999/xlink" viewBox="0 0 251.77 190.63"><defs><style>.cls-1{fill:url(#radial-gradient);}.cls-2{fill:#9abf36;}.cls-2,.cls-3,.cls-4,.cls-5{opacity:0.7;}.cls-3{fill:#3f163d;}.cls-4{fill:#f6861f;}.cls-5{fill:#ee396b;}.cls-6{fill:none;stroke:#fff;stroke-miterlimit:10;stroke-width:3px;}.cls-7{fill:#6d6e71;}</style><radialGradient id="radial-gradient" cx="47.16" cy="1442.33" r="65" gradientTransform="translate(67.85 -785.69) scale(1.23 0.63)" gradientUnits="userSpaceOnUse"><stop offset="0" stop-opacity="0.4"/><stop offset="0.18" stop-color="#262626" stop-opacity="0.2"/><stop offset="0.72" stop-color="#595a5c" stop-opacity="0.15"/><stop offset="1" stop-color="#bababa" stop-opacity="0"/></radialGradient></defs><title>big_logo_Asset 6</title><g id="Layer_2" data-name="Layer 2"><g id="Layer_1-2" data-name="Layer 1"><ellipse class="cls-1" cx="125.89" cy="117.33" rx="108.51" ry="54.25"/><polygon class="cls-2" points="124.72 71.33 124.72 2.13 64.8 36.73 64.8 105.93 124.72 71.33"/><polygon class="cls-3" points="124.72 70.49 64.8 35.89 64.79 35.89 64.79 105.09 124.72 139.69 124.72 139.68 124.72 70.49"/><polygon class="cls-4" points="184.96 36.73 125.04 2.13 125.03 2.13 125.03 71.33 184.96 105.93 184.96 105.93 184.96 36.73"/><polygon class="cls-5" points="184.96 105.09 184.96 35.89 125.04 70.49 125.04 139.68 184.96 105.09"/><line class="cls-6" x1="125.04" y1="46.49" x2="125.04" y2="70.49"/><line class="cls-6" x1="164.19" y1="23.9" x2="184.95" y2="35.89"/><line class="cls-6" x1="85.89" y1="23.9" x2="65.13" y2="35.89"/><path class="cls-6" d="M125,1.3"/><line class="cls-6" x1="125.04" y1="1.3" x2="125.04" y2="25.26"/><line class="cls-6" x1="125.04" y1="1.3" x2="145.81" y2="13.29"/><line class="cls-6" x1="125.04" y1="1.3" x2="104.26" y2="13.29"/><path class="cls-6" d="M125,70.54"/><line class="cls-6" x1="125.04" y1="70.54" x2="125.04" y2="46.58"/><line class="cls-6" x1="125.04" y1="70.54" x2="145.81" y2="58.55"/><line class="cls-6" x1="125.04" y1="70.54" x2="104.26" y2="58.55"/><path class="cls-6" d="M125,139.69"/><line class="cls-6" x1="125.04" y1="139.69" x2="125.04" y2="115.73"/><line class="cls-6" x1="125.04" y1="139.69" x2="145.81" y2="127.7"/><line class="cls-6" x1="125.04" y1="139.69" x2="104.26" y2="127.7"/><path class="cls-6" d="M185,105.16"/><line class="cls-6" x1="184.96" y1="105.16" x2="164.2" y2="93.18"/><line class="cls-6" x1="184.96" y1="105.16" x2="184.96" y2="81.17"/><line class="cls-6" x1="184.96" y1="105.16" x2="164.18" y2="117.15"/><path class="cls-6" d="M185,35.9"/><line class="cls-6" x1="184.96" y1="35.9" x2="164.2" y2="47.88"/><line class="cls-6" x1="184.96" y1="35.9" x2="164.18" y2="23.9"/><line class="cls-6" x1="184.96" y1="35.9" x2="184.96" y2="59.89"/><path class="cls-6" d="M65.13,35.9"/><line class="cls-6" x1="65.13" y1="35.9" x2="85.88" y2="47.88"/><line class="cls-6" x1="65.13" y1="35.9" x2="85.9" y2="23.9"/><line class="cls-6" x1="65.13" y1="35.9" x2="65.13" y2="59.89"/><path class="cls-6" d="M65.13,105.16"/><line class="cls-6" x1="65.13" y1="105.16" x2="85.88" y2="93.18"/><line class="cls-6" x1="65.13" y1="105.16" x2="65.13" y2="81.17"/><line class="cls-6" x1="65.13" y1="105.16" x2="85.9" y2="117.15"/><path class="cls-7" d="M207.09,175.64v-1.52H237.8a11.3,11.3,0,0,0,5-1.11,13.64,13.64,0,0,0,6.73-7.14,12.58,12.58,0,0,0,1-4.86,13,13,0,0,0-7.77-12,13.27,13.27,0,0,0-5.54-1.11H218.92v-1.52h18.27a16.08,16.08,0,0,1,6,1.09,13,13,0,0,1,7.52,7.67,16.51,16.51,0,0,1,1,5.87,13.94,13.94,0,0,1-.53,3.77,16.34,16.34,0,0,1-1.52,3.64,15.83,15.83,0,0,1-2.4,3.21,14.94,14.94,0,0,1-3.24,2.53l6.88-.05v1.52Z"/><path class="cls-7" d="M34.33,175.64v-1.52h105a11.3,11.3,0,0,0,5-1.11,13.64,13.64,0,0,0,6.73-7.14,12.58,12.58,0,0,0,1-4.86,13,13,0,0,0-7.77-12,13.27,13.27,0,0,0-5.54-1.11H120.45v-1.52h18.27a16.08,16.08,0,0,1,6,1.09,13,13,0,0,1,7.52,7.67,16.51,16.51,0,0,1,1,5.87,13.94,13.94,0,0,1-.53,3.77,16.34,16.34,0,0,1-1.52,3.64,15.83,15.83,0,0,1-2.4,3.21,14.94,14.94,0,0,1-3.24,2.53l6.88-.05v1.52Z"/><path class="cls-7" d="M207.17,175.81a15.22,15.22,0,0,1-1.14,5.92,14,14,0,0,1-3.16,4.7,14.45,14.45,0,0,1-4.86,3.08,16.77,16.77,0,0,1-6.18,1.11,16.19,16.19,0,0,1-5.34-.84,14.78,14.78,0,0,1-4.38-2.4l1.11-1.11a14.72,14.72,0,0,0,3.82,2.2,12.71,12.71,0,0,0,4.78.89,14.15,14.15,0,0,0,5.42-1,13.7,13.7,0,0,0,4.4-2.86,13.53,13.53,0,0,0,3-4.3,13.21,13.21,0,0,0,1.09-5.37l-.05-8.25a13.71,13.71,0,0,1-2.81,4.23,15.13,15.13,0,0,1-7.42,4.15,16.13,16.13,0,0,1-3.49.43,15,15,0,0,1-6-1.21,15.79,15.79,0,0,1-4.88-3.26,15.48,15.48,0,0,1-3.29-4.78,14.51,14.51,0,0,1,0-11.62,15.08,15.08,0,0,1,8.18-7.93,15.53,15.53,0,0,1,6-1.16,15.83,15.83,0,0,1,3.47.43,16.7,16.7,0,0,1,3.77,1.37,15.42,15.42,0,0,1,3.57,2.5,14.45,14.45,0,0,1,2.91,3.84,18.38,18.38,0,0,1,1.52,4.5C207.79,163.78,207.17,175.81,207.17,175.81Zm-1.27-14.52a13,13,0,0,0-1.11-5.38,14,14,0,0,0-3-4.34,13.73,13.73,0,0,0-4.42-2.89,14.57,14.57,0,0,0-10.81,0,13.62,13.62,0,0,0-7.4,7.23,13.27,13.27,0,0,0-1.09,5.38,13.45,13.45,0,0,0,1.09,5.4,14,14,0,0,0,22.64,4.39,14.21,14.21,0,0,0,3-4.39A13.19,13.19,0,0,0,205.9,161.29Z"/><path class="cls-7" d="M168.95,146.38v35.08a9,9,0,0,1-.68,3.47,9,9,0,0,1-1.9,2.89,8.88,8.88,0,0,1-2.86,1.95,9.06,9.06,0,0,1-3.62.71,8.19,8.19,0,0,1-3.67-.84,9.83,9.83,0,0,1-2.91-2.15l1-1a9,9,0,0,0,2.33,1.87,6.29,6.29,0,0,0,3.24.86,7.33,7.33,0,0,0,5.44-2.33,8,8,0,0,0,1.54-2.4,7.26,7.26,0,0,0,.56-2.81v-34h-2.38v-1.27Z"/><path class="cls-7" d="M232.72,183.52a1.81,1.81,0,0,1-.59,1.37,2,2,0,0,1-1.41.56,1.89,1.89,0,0,1-1.38-.56,1.84,1.84,0,0,1-.56-1.37,1.92,1.92,0,0,1,1.95-2,2,2,0,0,1,1.41.56A1.87,1.87,0,0,1,232.72,183.52Z"/><path class="cls-7" d="M142.87,183.52a1.81,1.81,0,0,1-.59,1.37,2,2,0,0,1-1.41.56,1.89,1.89,0,0,1-1.38-.56,1.84,1.84,0,0,1-.56-1.37,1.92,1.92,0,0,1,1.95-2,2,2,0,0,1,1.41.56A1.87,1.87,0,0,1,142.87,183.52Z"/><path class="cls-7" d="M94.81,150.79a1.81,1.81,0,0,1-.59,1.37,2,2,0,0,1-1.41.56,1.89,1.89,0,0,1-1.38-.56,1.84,1.84,0,0,1-.56-1.37,1.92,1.92,0,0,1,1.95-2,2,2,0,0,1,1.41.56A1.87,1.87,0,0,1,94.81,150.79Z"/><path class="cls-7" d="M69.24,174.12H93.38A13.94,13.94,0,0,0,98.85,173a14.51,14.51,0,0,0,4.53-3,14.25,14.25,0,0,0,3.09-4.45,13.35,13.35,0,0,0,1.14-5.49,11.8,11.8,0,0,0-1.09-5.06,14.83,14.83,0,0,0-2.81-4.1l1.21-1.21a17,17,0,0,1,3,4.81A14.43,14.43,0,0,1,109,160.1a15.87,15.87,0,0,1-1.19,6.15,15.17,15.17,0,0,1-3.29,5,15,15,0,0,1-4.91,3.26,15.64,15.64,0,0,1-6,1.16H67.82"/><path class="cls-7" d="M34.62,165.65v7.51a17,17,0,0,1-1.34,6.73,17.31,17.31,0,0,1-9.14,9.21,16.81,16.81,0,0,1-6.78,1.37,17,17,0,0,1-6.81-1.37A17.79,17.79,0,0,1,5,185.41a17,17,0,0,1-5-12.2v-7.56H1.52v7.76a15,15,0,0,0,1.24,6.07,15.6,15.6,0,0,0,3.42,5,16.56,16.56,0,0,0,5,3.37,15.28,15.28,0,0,0,6.15,1.24,15.44,15.44,0,0,0,6.1-1.21,15.8,15.8,0,0,0,8.4-8.3,14.87,14.87,0,0,0,1.24-6v-7.86Z"/></g></g></svg>