<svg xmlns="http://www.w3.org/2000/svg" viewBox="0 0 135.55 158.4"><title>cheap_Asset 1</title><g id="Layer_2" data-name="Layer 2"><g id="Layer_1-2" data-name="Layer 1"><polygon points="0 39.6 67.77 0 135.55 39.6 135.55 118.8 67.77 158.4 0 118.8 0 39.6" fill="#e6e7e8"/><polygon points="20.09 51.32 67.8 23.44 115.51 51.32 115.51 107.08 67.8 134.96 20.09 107.08 20.09 51.32" fill="#fff" stroke="#99bf36" stroke-miterlimit="10"/><polyline points="115.46 51.34 67.75 79.22 20.04 51.34" fill="#fff" stroke="#99bf36" stroke-miterlimit="10"/><line x1="67.72" y1="79.22" x2="67.72" y2="134.96" fill="#fff" stroke="#99bf36" stroke-miterlimit="10"/><line x1="46.76" y1="35.57" x2="93.33" y2="64.24" fill="#fff" stroke="#99bf36" stroke-miterlimit="10"/><path d="M76,90.61c-1.38-2.92-1.28-4.81,1.34-6.08L80,83.26c2.54-1.24,4.09-.15,5.48,2.76l2.05,4.32c1.39,2.92,1.28,4.81-1.34,6.08L83.56,97.7c-2.54,1.24-4.09.15-5.48-2.76Zm6.36,4,2.17-1.05c1.29-.63,1.17-1.25.57-2.51l-1.71-3.6c-.71-1.49-1.23-1.64-2.24-1.15L79,87.38c-1.18.57-1.24,1.1-.57,2.52l1.71,3.6C80.78,94.85,81.29,95.17,82.38,94.64Zm7.7-16.29,2.32-1.13.49,30.68-2.39,1.16Zm5.2,17.54C93.89,93,94,91.09,96.61,89.82l2.63-1.28c2.54-1.24,4.09-.15,5.48,2.76l2.05,4.32c1.39,2.92,1.28,4.81-1.34,6.08L102.8,103c-2.54,1.24-4.08.15-5.47-2.77Zm6.36,4,2.16-1c1.29-.63,1.18-1.25.58-2.52l-1.71-3.6c-.71-1.49-1.23-1.64-2.25-1.14l-2.16,1c-1.18.57-1.24,1.1-.57,2.51l1.71,3.6C100,100.13,100.54,100.45,101.63,99.92Z" fill="#99bf36"/><path d="M36.14,79.14c1.34-2.94,2.77-4.09,5.15-3l2.38,1.11c2.3,1.08,2.38,2.94,1,5.88l-2,4.35c-1.34,2.94-2.77,4.09-5.15,3l-2.38-1.11c-2.3-1.08-2.38-2.94-1-5.88Zm.61,7.35,2,.92c1.17.55,1.55.05,2.14-1.22l1.66-3.63c.69-1.5.51-2-.41-2.42l-2-.92c-1.07-.5-1.49-.2-2.14,1.22l-1.66,3.63C35.72,85.44,35.77,86,36.76,86.49Zm16.06-4.93,2.11,1L33,103l-2.16-1ZM43,96.89c1.34-2.94,2.76-4.1,5.14-3L50.52,95c2.3,1.08,2.38,2.94,1,5.88l-2,4.35c-1.34,2.94-2.77,4.09-5.15,3L42,107.12c-2.3-1.08-2.37-2.94-1-5.87Zm.61,7.35,2,.92c1.17.55,1.56.06,2.14-1.22l1.66-3.63c.69-1.5.5-2-.42-2.42L47,97c-1.07-.5-1.49-.2-2.14,1.22l-1.66,3.63C42.57,103.2,42.62,103.78,43.61,104.25Z" fill="#99bf36"/></g></g></svg>