<svg xmlns="http://www.w3.org/2000/svg" viewBox="0 0 135.55 158.4"><title>discount_Asset 2</title><g id="Layer_2" data-name="Layer 2"><g id="Layer_1-2" data-name="Layer 1"><polygon points="0 39.6 67.77 0 135.55 39.6 135.55 118.8 67.77 158.4 0 118.8 0 39.6" fill="#e6e7e8"/><polygon points="20.09 51.32 67.8 23.44 115.51 51.32 115.51 107.08 67.8 134.96 20.09 107.08 20.09 51.32" fill="#fff" stroke="#3f153c" stroke-miterlimit="10"/><polyline points="115.46 51.34 67.75 79.22 20.04 51.34" fill="#fff" stroke="#3f153c" stroke-miterlimit="10"/><line x1="67.72" y1="79.22" x2="67.72" y2="134.96" fill="#fff" stroke="#3f153c" stroke-miterlimit="10"/><line x1="46.76" y1="35.57" x2="93.33" y2="64.24" fill="none" stroke="#3f153c" stroke-miterlimit="10"/><polygon points="98.93 117.29 98.79 61.59 49.54 32.79 41.89 37.38 90.19 66.39 90.4 122.57 98.93 117.29" fill="#3f153c"/><polygon points="39.45 119.45 39.58 63.75 88.84 34.95 96.72 38.81 48.42 67.83 48.21 124.01 39.45 119.45" fill="#3f153c"/><path d="M92.52,46.63l-4.31.17A6.25,6.25,0,0,1,88,49.09l-.09.18.15.12-.1-.16,0,0,.15.12-.1-.16-.08,0a6.18,6.18,0,0,1-2.71-.08,33.49,33.49,0,0,1-5.51-1.67c-5.35-2-11.84-5.31-17.83-7.59a48.61,48.61,0,0,0-5.3-1.71,17,17,0,0,0-7.85-.43,8.82,8.82,0,0,0-6.5,5.73,14.32,14.32,0,0,0-.79,5.1,12.19,12.19,0,0,0,1.31,5.78,8.39,8.39,0,0,0,1.88,2.35,8.28,8.28,0,0,0,2.5,1.48,11.89,11.89,0,0,0,5.94.47,41.4,41.4,0,0,0,10.26-3.37C68.56,53,74.18,50,79,47.89a38.2,38.2,0,0,1,6.26-2.21,10,10,0,0,1,2-.28,2.38,2.38,0,0,1,.8.08h0l.22-.38-.32.3.1.08.22-.38-.32.3.22-.21-.25.18,0,0,.22-.21-.25.18h0a3.45,3.45,0,0,1,.26,1.44l4.31-.18,4.31-.18a11.78,11.78,0,0,0-1.45-5.53A8.34,8.34,0,0,0,91.1,37.3a12,12,0,0,0-6-.48,41.29,41.29,0,0,0-10.3,3.36c-5.31,2.35-10.93,5.36-15.74,7.43a38.43,38.43,0,0,1-6.24,2.22,10,10,0,0,1-2,.29,2.32,2.32,0,0,1-.77-.08h0l-.19.41.31-.32L50.08,50l-.19.41.31-.32-.21.22.26-.16,0-.06-.21.22.26-.16A3.82,3.82,0,0,1,50,48.55a5.81,5.81,0,0,1,.24-2l.11-.22-.08-.06.05.09,0,0-.08-.06.05.09.1,0a6.28,6.28,0,0,1,2.78.08,33.77,33.77,0,0,1,5.58,1.69c5.37,2,11.86,5.32,17.83,7.59a48.3,48.3,0,0,0,5.24,1.69,16.9,16.9,0,0,0,7.76.44,8.73,8.73,0,0,0,6.46-5.67,14.7,14.7,0,0,0,.76-5.7Z" fill="#3f153c"/></g></g></svg>