<svg xmlns="http://www.w3.org/2000/svg" viewBox="0 0 135.55 158.4"><title>full_sale_Asset 3</title><g id="Layer_2" data-name="Layer 2"><g id="Layer_1-2" data-name="Layer 1"><polygon points="0 39.6 67.77 0 135.55 39.6 135.55 118.8 67.77 158.4 0 118.8 0 39.6" fill="#e6e7e8"/><polygon points="46.05 52.95 80.88 32.6 115.71 52.95 115.71 93.66 80.88 114.01 46.05 93.66 46.05 52.95" fill="#fff" stroke="#ed386b" stroke-miterlimit="10"/><polyline points="115.67 52.97 80.84 73.32 46.01 52.97" fill="#fff" stroke="#ed386b" stroke-miterlimit="10"/><line x1="80.82" y1="73.32" x2="80.82" y2="114.01" fill="#fff" stroke="#ed386b" stroke-miterlimit="10"/><line x1="65.52" y1="41.46" x2="99.52" y2="62.39" fill="#fff" stroke="#ed386b" stroke-miterlimit="10"/><text transform="translate(90.66 92.1) scale(0.99 1)" font-size="25.98" fill="#ed386b" font-family="Exo-Bold, Exo Bold" font-weight="700">$</text><text transform="translate(56.15 93.05) scale(0.99 1)" font-size="25.98" fill="#ed386b" font-family="Exo-Bold, Exo Bold" font-weight="700">$</text><polygon points="19.88 52.42 54.71 32.07 89.54 52.42 89.54 93.12 54.71 113.47 19.88 93.12 19.88 52.42" fill="#fff" stroke="#ed386b" stroke-miterlimit="10"/><polyline points="89.5 52.43 54.67 72.78 19.84 52.43" fill="#fff" stroke="#ed386b" stroke-miterlimit="10"/><line x1="54.65" y1="72.79" x2="54.65" y2="113.47" fill="#fff" stroke="#ed386b" stroke-miterlimit="10"/><line x1="39.35" y1="40.92" x2="73.34" y2="61.85" fill="#fff" stroke="#ed386b" stroke-miterlimit="10"/><text transform="translate(64.49 91.57) scale(0.99 1)" font-size="25.98" fill="#ed386b" font-family="Exo-Bold, Exo Bold" font-weight="700">$</text><text transform="translate(29.98 92.52) scale(0.99 1)" font-size="25.98" fill="#ed386b" font-family="Exo-Bold, Exo Bold" font-weight="700">$</text><polygon points="33.26 73.62 68.09 53.27 102.92 73.62 102.92 114.32 68.09 134.67 33.26 114.32 33.26 73.62" fill="#fff" stroke="#ed386b" stroke-miterlimit="10"/><polyline points="102.88 73.63 68.05 93.98 33.22 73.63" fill="#fff" stroke="#ed386b" stroke-miterlimit="10"/><line x1="68.03" y1="93.99" x2="68.03" y2="134.67" fill="#fff" stroke="#ed386b" stroke-miterlimit="10"/><line x1="52.73" y1="62.12" x2="86.72" y2="83.05" fill="#fff" stroke="#ed386b" stroke-miterlimit="10"/><text transform="translate(77.86 112.76) scale(0.99 1)" font-size="25.98" fill="#ed386b" font-family="Exo-Bold, Exo Bold" font-weight="700">$</text><text transform="translate(43.36 113.72) scale(0.99 1)" font-size="25.98" fill="#ed386b" font-family="Exo-Bold, Exo Bold" font-weight="700">$</text></g></g></svg>