<svg xmlns="http://www.w3.org/2000/svg" xmlns:xlink="http://www.w3.org/1999/xlink" viewBox="0 0 135.55 158.4"><defs><clipPath id="clip-path"><polygon id="SVGID" points="73.74 80.36 99.9 72.61 109.52 105.86 83.36 113.62 73.74 80.36" fill="none"/></clipPath><clipPath id="clip-path-2"><polygon id="SVGID-2" data-name="SVGID" points="61.68 77.26 57.47 109.73 29.09 105.97 33.29 73.5 61.68 77.26" fill="none"/></clipPath></defs><title>new_Asset 4</title><g id="Layer_2" data-name="Layer 2"><g id="Layer_1-2" data-name="Layer 1"><polygon points="0 39.6 67.77 0 135.55 39.6 135.55 118.8 67.77 158.4 0 118.8 0 39.6" fill="#e6e7e8"/><polygon points="20.09 51.32 67.8 23.44 115.51 51.32 115.51 107.08 67.8 134.96 20.09 107.08 20.09 51.32" fill="#fff" stroke="#f5851f" stroke-miterlimit="10"/><polyline points="115.46 51.34 67.75 79.22 20.04 51.34" fill="#fff" stroke="#f5851f" stroke-miterlimit="10"/><line x1="67.72" y1="79.22" x2="67.72" y2="134.96" fill="#fff" stroke="#f5851f" stroke-miterlimit="10"/><line x1="46.76" y1="35.57" x2="93.33" y2="64.24" fill="#fff" stroke="#f5851f" stroke-miterlimit="10"/><g clip-path="url(#clip-path)"><path d="M97.48,78.61a12.21,12.21,0,0,0-10.66-2.13A12.39,12.39,0,0,0,79,84.09,19.89,19.89,0,0,0,78.55,97a19.67,19.67,0,0,0,7.23,10.62,12.2,12.2,0,0,0,10.65,2.11l.53-.17a1.27,1.27,0,0,0,.73-.75l7.13-17.67a2,2,0,0,0,.06-1.22,20,20,0,0,0-7.4-11.3ZM95.3,106.44A9.78,9.78,0,0,1,87,104.71a15.73,15.73,0,0,1-5.79-8.49,15.91,15.91,0,0,1,.34-10.31,9.91,9.91,0,0,1,6.27-6.09,9.76,9.76,0,0,1,8.53,1.7A15.55,15.55,0,0,1,102,89.67c-5.46,2.34-8.28,9.42-6.67,16.77Zm0,0" fill="#f5851f"/></g><path d="M86.91,95a.57.57,0,0,0-.5-.1.58.58,0,0,0-.37.36,1,1,0,0,0,.32,1.09l1.07.76a26.09,26.09,0,0,0,2.42,1.56l-4.62-.39a.55.55,0,0,0-.56.37l-.26.64a1,1,0,0,0,.32,1.1l4.5,3.2a.55.55,0,0,0,.86-.26.94.94,0,0,0,0-.6.92.92,0,0,0-.34-.49l-1.12-.8c-.93-.66-1.73-1.21-2.5-1.71l4.82.4a.55.55,0,0,0,.56-.37l.19-.46a1,1,0,0,0-.32-1.1Zm0,0" fill="#f5851f"/><path d="M92.89,93.06l-.84,2.07-1.35-1,.72-1.79a.85.85,0,0,0-.28-1,.5.5,0,0,0-.44-.09.51.51,0,0,0-.32.31l-.72,1.79-1.18-.84.78-1.93a.86.86,0,0,0-.28-1,.51.51,0,0,0-.44-.09.52.52,0,0,0-.33.32l-1.1,2.74a1,1,0,0,0,.32,1.1l4.49,3.2a.55.55,0,0,0,.86-.26l1.16-2.87a.86.86,0,0,0-.28-1,.49.49,0,0,0-.77.23Zm0,0" fill="#f5851f"/><path d="M92.77,81.07a.68.68,0,0,0-.58-.25.59.59,0,0,0-.47.39,1,1,0,0,0,.22,1L93.59,84c.62.61,1.23,1.23,1.82,1.78v0c-.67-.36-1.32-.68-2-1l-2.05-.93a.56.56,0,0,0-.78.34l-.16.4a1,1,0,0,0,.21,1l1.66,1.74c.63.66,1.25,1.3,1.82,1.85v0c-.62-.3-1.4-.69-2.13-1l-2-.91a.6.6,0,0,0-.83.35,1.07,1.07,0,0,0,0,.77.94.94,0,0,0,.5.54l4.88,1.93a.56.56,0,0,0,.75-.35l.2-.48a1,1,0,0,0-.21-1L93.5,87.12c-.51-.56-1-1.05-1.6-1.62v0c.68.39,1.25.66,1.87.94l2.12.95a.57.57,0,0,0,.78-.34l.19-.46a1,1,0,0,0-.19-1Zm0,0" fill="#f5851f"/><g clip-path="url(#clip-path-2)"><path d="M53.93,104.43a18.08,18.08,0,0,0,3-23A13.08,13.08,0,0,0,36.83,78.8,17.47,17.47,0,0,0,31.2,89.73c0,.22-.05.44-.07.66a1.77,1.77,0,0,0,.27,1.14l10.42,15.62a1.37,1.37,0,0,0,.89.6,13.38,13.38,0,0,0,11.22-3.32ZM34.08,89.9a13.93,13.93,0,0,1,4.46-8.53A10.46,10.46,0,0,1,54.6,83.5a14.46,14.46,0,0,1-2.38,18.36A10.62,10.62,0,0,1,44,104.62c.34-7.09-3.85-13.31-9.92-14.72Zm0,0" fill="#f5851f"/></g><path d="M45.78,85.54a.84.84,0,0,0,.14-1.07.61.61,0,0,0-.93-.12l-1,.86a26.73,26.73,0,0,0-2.08,2l2.05-5a.85.85,0,0,0-.07-.78l-.37-.56a.61.61,0,0,0-.93-.12l-4.1,3.61a.84.84,0,0,0-.14,1.07.63.63,0,0,0,.44.28.63.63,0,0,0,.5-.16l1-.9c.84-.74,1.56-1.4,2.22-2L40.4,87.84a.85.85,0,0,0,.07.78l.27.41a.61.61,0,0,0,.94.12Zm0,0" fill="#f5851f"/><path d="M44.94,93l-1.22-1.83,1.23-1.08L46,91.71a.54.54,0,0,0,.83.11.75.75,0,0,0,.12-.95L45.9,89.29,47,88.34l1.14,1.71a.54.54,0,0,0,.83.11.75.75,0,0,0,.12-1l-1.61-2.42a.61.61,0,0,0-.94-.12l-4.09,3.6a.84.84,0,0,0-.14,1.07L44,93.88a.54.54,0,0,0,.83.11.75.75,0,0,0,.13-1Zm0,0" fill="#f5851f"/><path d="M53.9,98.12a.81.81,0,0,0,.41-.54.87.87,0,0,0-.11-.69.63.63,0,0,0-.86-.21l-1.91,1.1c-.69.42-1.38.83-2,1.25v0c.52-.59,1-1.17,1.53-1.83l1.48-1.88a.88.88,0,0,0,0-1l-.23-.35a.63.63,0,0,0-.86-.22l-1.92,1.08c-.73.42-1.44.83-2.07,1.23v0c.46-.55,1-1.26,1.58-1.93l1.42-1.78a.94.94,0,0,0,.05-1.08.7.7,0,0,0-.57-.32.74.74,0,0,0-.59.32l-3.3,4.58a.89.89,0,0,0,0,1l.28.43a.64.64,0,0,0,.85.22l2.07-1.13c.61-.32,1.16-.66,1.81-1.07v0c-.55.59-1,1.11-1.41,1.68L48,98.87a.89.89,0,0,0,0,1l.27.41a.63.63,0,0,0,.83.23Zm0,0" fill="#f5851f"/></g></g></svg>