<svg xmlns="http://www.w3.org/2000/svg" viewBox="0 0 182.02 182.4"><defs><style>.cls-1{fill:#fff;stroke:#414042;stroke-miterlimit:10;stroke-width:0.5px;}.cls-2{fill:#52504b;}</style></defs><title>empty_profile_Asset 8</title><g id="Layer_2" data-name="Layer 2"><g id="Layer_1-2" data-name="Layer 1"><rect class="cls-1" x="0.25" y="0.25" width="181.52" height="181.52"/><path class="cls-2" d="M166.73,151.61c-8.6-4.15-24-11.85-28.43-13.92s-16.59-8.45-16.59-8.45-.58-10.15-4.14-10.75l.6-6.86s4.15-9.51,4.15-15.44c0,0,4.15,3.55,5.64-4.46s3.56-22.84-3-19.28c0,0,1.34-11.86.15-19s-7.27-29.06-34.55-29.06S57.23,46.36,56,53.48s.15,19,.15,19c-6.52-3.56-4.45,11.27-3,19.28s5.64,4.45,5.64,4.45c0,5.93,4.15,15.43,4.15,15.43l.6,6.83c-3.56.59-4.14,10.69-4.14,10.69s-12.14,6.27-16.59,8.34-19.83,10-28.43,14.13S5,182.4,5,182.4H176.14S175.33,155.76,166.73,151.61Z"/></g></g></svg>