<svg xmlns="http://www.w3.org/2000/svg" xmlns:xlink="http://www.w3.org/1999/xlink" viewBox="0 0 112.64 99.09"><defs><clipPath id="clip-path" transform="translate(0 -0.15)"><rect width="112.95" height="99.56" fill="none"/></clipPath></defs><title>credit_Asset 1</title><g id="Layer_2" data-name="Layer 2"><g id="Layer_1-2" data-name="Layer 1"><g clip-path="url(#clip-path)"><rect x="17.05" y="52.17" width="89.01" height="7.42" fill="#ed386b"/><path d="M104.39,27,100,8.1A10.2,10.2,0,0,0,87.82.39L8,18.11A10.2,10.2,0,0,0,.24,30.26L10.48,76.8V89A10.2,10.2,0,0,0,20.66,99.23h81.79A10.2,10.2,0,0,0,112.64,89V37a10.2,10.2,0,0,0-8.24-10Zm-1.94,6.38A3.62,3.62,0,0,1,106.07,37v8.76h-89V37a3.62,3.62,0,0,1,3.61-3.61Zm3.61,26.36h-89V52.31h89ZM10.48,37v9.22L6.66,28.84A3.62,3.62,0,0,1,9.4,24.53L89.25,6.8a3.62,3.62,0,0,1,4.31,2.75v0l4,17.22H20.66A10.2,10.2,0,0,0,10.48,37ZM106.07,89a3.62,3.62,0,0,1-3.61,3.61H20.66A3.62,3.62,0,0,1,17.05,89V66.3h89Zm0,0" transform="translate(0 -0.15)" fill="#3f153c"/></g></g></g></svg>