<svg xmlns="http://www.w3.org/2000/svg" viewBox="0 0 86.6 100"><title>Asset 22</title><g id="Layer_2" data-name="Layer 2"><g id="Layer_1-2" data-name="Layer 1"><polygon points="0 25 43.3 0 86.6 25 86.6 75 43.3 100 0 75 0 25" style="fill:#e6e7e8"/><polygon points="12.83 32.4 43.32 14.8 73.8 32.4 73.8 67.6 43.32 85.2 12.83 67.6 12.83 32.4" style="fill:#fff;stroke:#9abf36;stroke-miterlimit:10"/><polyline points="73.77 32.41 43.28 50.01 12.8 32.41" style="fill:#fff;stroke:#9abf36;stroke-miterlimit:10"/><line x1="43.27" y1="50.01" x2="43.27" y2="85.2" style="fill:#fff;stroke:#9abf36;stroke-miterlimit:10"/><line x1="29.87" y1="22.46" x2="59.63" y2="40.56" style="fill:#fff;stroke:#9abf36;stroke-miterlimit:10"/><path d="M48.57,57.21c-.88-1.84-.82-3,.86-3.84l1.67-.8c1.62-.78,2.62-.1,3.5,1.74L55.92,57c.89,1.84.82,3-.86,3.84l-1.67.8c-1.62.78-2.62.1-3.5-1.74Zm4.06,2.54L54,59.08c.82-.4.75-.79.36-1.59l-1.09-2.27c-.45-.94-.78-1-1.43-.72l-1.38.67c-.75.36-.79.7-.36,1.59L51.2,59C51.61,59.88,51.94,60.08,52.64,59.75Zm4.92-10.28L59,48.75l.31,19.37-1.52.73Zm3.32,11.07c-.88-1.84-.82-3,.85-3.84l1.68-.81c1.62-.78,2.62-.1,3.5,1.74l1.31,2.73c.89,1.84.82,3-.86,3.84L65.68,65c-1.62.78-2.61.09-3.49-1.75Zm4.06,2.54,1.38-.66c.82-.4.75-.79.37-1.59l-1.09-2.27c-.45-.94-.79-1-1.44-.72l-1.38.66c-.75.36-.79.7-.36,1.59l1.09,2.27C63.91,63.21,64.24,63.41,64.93,63.08Z" style="fill:#9abf36"/><path d="M23.09,50c.86-1.85,1.77-2.58,3.29-1.88l1.52.7c1.47.68,1.52,1.86.66,3.71l-1.27,2.75c-.86,1.85-1.77,2.58-3.29,1.88l-1.52-.7c-1.47-.68-1.52-1.86-.66-3.71Zm.39,4.64,1.25.58c.75.35,1,0,1.36-.77l1.06-2.29c.44-.95.33-1.25-.26-1.53L25.64,50c-.68-.32-.95-.13-1.37.77l-1.06,2.29C22.82,53.94,22.85,54.31,23.48,54.6Zm10.26-3.11,1.35.62L21.07,65l-1.38-.64Zm-6.27,9.68c.86-1.85,1.77-2.59,3.28-1.88l1.52.7c1.47.68,1.52,1.86.66,3.71l-1.27,2.75c-.86,1.85-1.77,2.58-3.29,1.88l-1.52-.7c-1.47-.68-1.52-1.85-.66-3.71Zm.39,4.64,1.25.58c.75.35,1,0,1.37-.77l1.06-2.29c.44-.95.32-1.25-.27-1.53L30,61.22c-.68-.32-.95-.13-1.36.77L27.6,64.29C27.2,65.15,27.23,65.52,27.86,65.81Z" style="fill:#9abf36"/></g></g></svg>