<svg xmlns="http://www.w3.org/2000/svg" viewBox="0 0 86.6 100"><title>Asset 21</title><g id="Layer_2" data-name="Layer 2"><g id="Layer_1-2" data-name="Layer 1"><polygon points="0 25 43.3 0 86.6 25 86.6 75 43.3 100 0 75 0 25" style="fill:#e6e7e8"/><polygon points="12.83 32.4 43.32 14.8 73.8 32.4 73.8 67.6 43.32 85.2 12.83 67.6 12.83 32.4" style="fill:#fff;stroke:#3f163d;stroke-miterlimit:10"/><polyline points="73.77 32.41 43.28 50.01 12.8 32.41" style="fill:#fff;stroke:#3f163d;stroke-miterlimit:10"/><line x1="43.27" y1="50.01" x2="43.27" y2="85.2" style="fill:#fff;stroke:#3f163d;stroke-miterlimit:10"/><line x1="29.87" y1="22.46" x2="59.63" y2="40.56" style="fill:none;stroke:#3f163d;stroke-miterlimit:10"/><polygon points="63.2 74.05 63.12 38.88 31.65 20.7 26.76 23.6 57.62 41.91 57.75 77.38 63.2 74.05" style="fill:#3f163d"/><polygon points="25.2 75.41 25.29 40.25 56.76 22.06 61.8 24.5 30.93 42.82 30.8 78.28 25.2 75.41" style="fill:#3f163d"/><path d="M59.11,29.44l-2.76.11A3.9,3.9,0,0,1,56.22,31l-.06.12.09.08-.06-.1,0,0,.09.08-.06-.1-.05,0A4,4,0,0,1,54.41,31,21.59,21.59,0,0,1,50.89,30c-3.42-1.27-7.56-3.35-11.39-4.79a31.33,31.33,0,0,0-3.39-1.08,11,11,0,0,0-5-.27,5.62,5.62,0,0,0-4.16,3.62,8.94,8.94,0,0,0-.5,3.22,7.62,7.62,0,0,0,.84,3.65,5.24,5.24,0,0,0,2.79,2.42,7.69,7.69,0,0,0,3.79.29,26.68,26.68,0,0,0,6.56-2.13c3.38-1.49,7-3.38,10.05-4.69a24.61,24.61,0,0,1,4-1.4,6.47,6.47,0,0,1,1.29-.18,1.53,1.53,0,0,1,.51.05h0l.14-.24-.2.19.07.05.14-.24-.2.19.14-.13-.16.12v0l.14-.13-.16.12h0a2.15,2.15,0,0,1,.17.91l2.76-.11,2.76-.11a7.37,7.37,0,0,0-.93-3.49,5.31,5.31,0,0,0-2.73-2.29,7.74,7.74,0,0,0-3.8-.3,26.6,26.6,0,0,0-6.58,2.12c-3.39,1.48-7,3.38-10.06,4.69a24.75,24.75,0,0,1-4,1.4,6.43,6.43,0,0,1-1.28.18,1.5,1.5,0,0,1-.49,0h0l-.12.26.2-.2L32,31.59l-.12.26.2-.2-.13.14.17-.1,0,0-.13.14.17-.1a2.39,2.39,0,0,1-.16-1,3.63,3.63,0,0,1,.15-1.24l.07-.14,0,0,0,.05h0l0,0,0,.05.06,0a4.06,4.06,0,0,1,1.78,0,21.77,21.77,0,0,1,3.57,1.06C41,31.65,45.14,33.73,49,35.16a31.13,31.13,0,0,0,3.35,1.07,10.92,10.92,0,0,0,5,.28,5.75,5.75,0,0,0,2.48-1.2,5.69,5.69,0,0,0,1.65-2.38,9.18,9.18,0,0,0,.49-3.6Z" style="fill:#3f163d"/></g></g></svg>