<svg xmlns="http://www.w3.org/2000/svg" viewBox="0 0 86.6 100"><title>fsAsset 36</title><g id="Layer_2" data-name="Layer 2"><g id="Layer_1-2" data-name="Layer 1"><polygon points="0 25 43.3 0 86.6 25 86.6 75 43.3 100 0 75 0 25" style="fill:#e6e7e8"/><polygon points="29.42 33.43 51.67 20.58 73.93 33.43 73.93 59.13 51.67 71.97 29.42 59.13 29.42 33.43" style="fill:#fff;stroke:#ee396b;stroke-miterlimit:10"/><polyline points="73.9 33.44 51.65 46.29 29.4 33.44" style="fill:#fff;stroke:#ee396b;stroke-miterlimit:10"/><line x1="51.64" y1="46.29" x2="51.64" y2="71.97" style="fill:#fff;stroke:#ee396b;stroke-miterlimit:10"/><line x1="41.86" y1="26.17" x2="63.58" y2="39.38" style="fill:#fff;stroke:#ee396b;stroke-miterlimit:10"/><text transform="translate(57.92 58.14)" style="font-size:16.404449462890625px;fill:#ee396b;font-family:Exo-Bold, Exo Bold;font-weight:700">$</text><text transform="translate(35.88 58.75)" style="font-size:16.404449462890625px;fill:#ee396b;font-family:Exo-Bold, Exo Bold;font-weight:700">$</text><polygon points="12.7 33.09 34.95 20.25 57.2 33.09 57.2 58.79 34.95 71.64 12.7 58.79 12.7 33.09" style="fill:#fff;stroke:#ee396b;stroke-miterlimit:10"/><polyline points="57.18 33.1 34.93 45.95 12.68 33.1" style="fill:#fff;stroke:#ee396b;stroke-miterlimit:10"/><line x1="34.92" y1="45.95" x2="34.92" y2="71.64" style="fill:#fff;stroke:#ee396b;stroke-miterlimit:10"/><line x1="25.14" y1="25.84" x2="46.86" y2="39.05" style="fill:#fff;stroke:#ee396b;stroke-miterlimit:10"/><text transform="translate(41.2 57.81)" style="font-size:16.404449462890625px;fill:#ee396b;font-family:Exo-Bold, Exo Bold;font-weight:700">$</text><text transform="translate(19.16 58.41)" style="font-size:16.404449462890625px;fill:#ee396b;font-family:Exo-Bold, Exo Bold;font-weight:700">$</text><polygon points="21.25 46.48 43.5 33.63 65.75 46.48 65.75 72.17 43.5 85.02 21.25 72.17 21.25 46.48" style="fill:#fff;stroke:#ee396b;stroke-miterlimit:10"/><polyline points="65.73 46.48 43.48 59.33 21.22 46.48" style="fill:#fff;stroke:#ee396b;stroke-miterlimit:10"/><line x1="43.46" y1="59.33" x2="43.46" y2="85.02" style="fill:#fff;stroke:#ee396b;stroke-miterlimit:10"/><line x1="33.69" y1="39.22" x2="55.41" y2="52.43" style="fill:#fff;stroke:#ee396b;stroke-miterlimit:10"/><text transform="translate(49.75 71.19)" style="font-size:16.404449462890625px;fill:#ee396b;font-family:Exo-Bold, Exo Bold;font-weight:700">$</text><text transform="translate(27.71 71.79)" style="font-size:16.404449462890625px;fill:#ee396b;font-family:Exo-Bold, Exo Bold;font-weight:700">$</text></g></g></svg>