<svg xmlns="http://www.w3.org/2000/svg" viewBox="0 0 54 61.82"><title>Asset 15</title><g id="Layer_2" data-name="Layer 2"><g id="Layer_1-2" data-name="Layer 1"><polygon points="26 31.16 26 1.14 0 16.15 0 46.18 26 31.16" style="fill:#9abf36;opacity:0.7000000000000001"/><polygon points="26 31.02 0 16.01 0 16.01 0 46.03 26 61.04 26 61.04 26 31.02" style="fill:#3f163d;opacity:0.7000000000000001"/><polygon points="53 16.15 27 1.14 27 1.14 27 31.16 53 46.17 53 46.17 53 16.15" style="fill:#f6861f;opacity:0.7000000000000001"/><polygon points="53 46.03 53 16.01 27 31.02 27 61.04 53 46.03" style="fill:#ee396b;opacity:0.7000000000000001"/><line x1="26.5" y1="20.7" x2="26.5" y2="30.7" style="fill:none;stroke:#fff;stroke-miterlimit:10"/><line x1="44.01" y1="10.39" x2="53.15" y2="15.67" style="fill:none;stroke:#fff;stroke-miterlimit:10"/><line x1="9.52" y1="10.39" x2="0.38" y2="15.67" style="fill:none;stroke:#fff;stroke-miterlimit:10"/><path d="M26.76.43" style="fill:none;stroke:#fff;stroke-miterlimit:10"/><line x1="26.5" y1="0.7" x2="26.5" y2="10.7" style="fill:none;stroke:#fff;stroke-miterlimit:10"/><line x1="26.76" y1="0.43" x2="35.91" y2="5.72" style="fill:none;stroke:#fff;stroke-miterlimit:10"/><line x1="26.76" y1="0.43" x2="17.61" y2="5.72" style="fill:none;stroke:#fff;stroke-miterlimit:10"/><path d="M26.76,30.93" style="fill:none;stroke:#fff;stroke-miterlimit:10"/><line x1="26.5" y1="30.7" x2="26.5" y2="20.7" style="fill:none;stroke:#fff;stroke-miterlimit:10"/><line x1="26.76" y1="30.93" x2="35.91" y2="25.65" style="fill:none;stroke:#fff;stroke-miterlimit:10"/><line x1="26.76" y1="30.93" x2="17.61" y2="25.65" style="fill:none;stroke:#fff;stroke-miterlimit:10"/><path d="M26.76,61.39" style="fill:none;stroke:#fff;stroke-miterlimit:10"/><line x1="26.5" y1="61.7" x2="26.5" y2="50.7" style="fill:none;stroke:#fff;stroke-miterlimit:10"/><line x1="26.76" y1="61.39" x2="35.91" y2="56.1" style="fill:none;stroke:#fff;stroke-miterlimit:10"/><line x1="26.76" y1="61.39" x2="17.61" y2="56.1" style="fill:none;stroke:#fff;stroke-miterlimit:10"/><path d="M53.15,46.18" style="fill:none;stroke:#fff;stroke-miterlimit:10"/><line x1="53.15" y1="46.18" x2="44.01" y2="40.9" style="fill:none;stroke:#fff;stroke-miterlimit:10"/><line x1="53.5" y1="45.7" x2="53.5" y2="35.7" style="fill:none;stroke:#fff;stroke-miterlimit:10"/><line x1="53.15" y1="46.18" x2="44" y2="51.46" style="fill:none;stroke:#fff;stroke-miterlimit:10"/><path d="M53.15,15.67" style="fill:none;stroke:#fff;stroke-miterlimit:10"/><line x1="53.15" y1="15.67" x2="44.01" y2="20.95" style="fill:none;stroke:#fff;stroke-miterlimit:10"/><line x1="53.15" y1="15.67" x2="44" y2="10.39" style="fill:none;stroke:#fff;stroke-miterlimit:10"/><line x1="53.5" y1="15.7" x2="53.5" y2="26.7" style="fill:none;stroke:#fff;stroke-miterlimit:10"/><path d="M.38,15.67" style="fill:none;stroke:#fff;stroke-miterlimit:10"/><line x1="0.38" y1="15.67" x2="9.52" y2="20.95" style="fill:none;stroke:#fff;stroke-miterlimit:10"/><line x1="0.38" y1="15.67" x2="9.53" y2="10.39" style="fill:none;stroke:#fff;stroke-miterlimit:10"/><line x1="0.5" y1="15.7" x2="0.5" y2="26.7" style="fill:none;stroke:#fff;stroke-miterlimit:10"/><path d="M.38,46.18" style="fill:none;stroke:#fff;stroke-miterlimit:10"/><line x1="0.38" y1="46.18" x2="9.52" y2="40.9" style="fill:none;stroke:#fff;stroke-miterlimit:10"/><line x1="0.5" y1="45.7" x2="0.5" y2="35.7" style="fill:none;stroke:#fff;stroke-miterlimit:10"/><line x1="0.38" y1="46.18" x2="9.53" y2="51.46" style="fill:none;stroke:#fff;stroke-miterlimit:10"/></g></g></svg>