<svg xmlns="http://www.w3.org/2000/svg" viewBox="0 0 46.89 43.96"><title>Asset 29</title><g id="Layer_2" data-name="Layer 2"><g id="Layer_1-2" data-name="Layer 1"><polygon points="7.38 15.04 23.74 5.59 40.11 15.04 40.11 33.93 23.74 43.38 7.38 33.93 7.38 15.04" style="fill:#3f163d;stroke:#fff;stroke-miterlimit:10"/><polyline points="40.09 15.04 23.73 24.49 7.36 15.04" style="fill:#3f163d;stroke:#fff;stroke-miterlimit:10"/><line x1="23.72" y1="24.49" x2="23.72" y2="43.38" style="fill:#3f163d;stroke:#fff;stroke-miterlimit:10"/><polygon points="40.11 15.04 23.75 5.6 29.04 0.62 45.4 10.06 40.11 15.04" style="fill:#3f163d;stroke:#fff;stroke-miterlimit:10"/><polygon points="23.74 5.59 7.38 15.03 1.92 10.12 18.28 0.68 23.74 5.59" style="fill:#3f163d;stroke:#fff;stroke-miterlimit:10"/><polygon points="45.47 16.05 29.09 25.5 23.73 24.49 40.1 15.04 45.47 16.05" style="fill:#3f163d;stroke:#fff;stroke-miterlimit:10"/><polygon points="17.8 25.52 1.44 16.08 7.38 15.04 23.73 24.48 17.8 25.52" style="fill:#3f163d;stroke:#fff;stroke-miterlimit:10"/></g></g></svg>