<svg xmlns="http://www.w3.org/2000/svg" viewBox="0 0 70.02 69"><title>Asset 33</title><g id="Layer_2" data-name="Layer 2"><g id="Layer_1-2" data-name="Layer 1"><polyline points="26.12 0.5 1.01 0.5 1.01 25.61" style="fill:none;stroke:#fff;stroke-miterlimit:10"/><polyline points="69.01 25.61 69.01 0.5 43.9 0.5" style="fill:none;stroke:#fff;stroke-miterlimit:10"/><polyline points="43.9 68.5 69.01 68.5 69.01 43.39" style="fill:none;stroke:#fff;stroke-miterlimit:10"/><polyline points="1.01 43.39 1.01 68.5 26.12 68.5" style="fill:none;stroke:#fff;stroke-miterlimit:10"/><line x1="8.13" y1="18.44" x2="8.13" y2="50.56" style="fill:none;stroke:#fff;stroke-miterlimit:10;stroke-width:2px"/><line x1="56.51" y1="18.44" x2="56.51" y2="44.72" style="fill:none;stroke:#fff;stroke-miterlimit:10"/><line x1="51.14" y1="18.44" x2="51.14" y2="44.72" style="fill:none;stroke:#fff;stroke-miterlimit:10;stroke-width:2px"/><line x1="45.76" y1="18.44" x2="45.76" y2="44.72" style="fill:none;stroke:#fff;stroke-miterlimit:10"/><line x1="40.39" y1="18.44" x2="40.39" y2="44.72" style="fill:none;stroke:#fff;stroke-miterlimit:10"/><line x1="35.01" y1="18.44" x2="35.01" y2="44.72" style="fill:none;stroke:#fff;stroke-miterlimit:10;stroke-width:3px"/><line x1="29.64" y1="18.44" x2="29.64" y2="44.72" style="fill:none;stroke:#fff;stroke-miterlimit:10"/><line x1="24.26" y1="18.44" x2="24.26" y2="44.72" style="fill:none;stroke:#fff;stroke-miterlimit:10;stroke-width:2px"/><line x1="18.88" y1="18.44" x2="18.88" y2="44.72" style="fill:none;stroke:#fff;stroke-miterlimit:10"/><line x1="13.51" y1="18.44" x2="13.51" y2="44.72" style="fill:none;stroke:#fff;stroke-miterlimit:10;stroke-width:3px"/><line x1="61.89" y1="18.44" x2="61.89" y2="50.49" style="fill:none;stroke:#fff;stroke-miterlimit:10;stroke-width:2px"/><line y1="34.5" x2="70.02" y2="34.5" style="fill:none;stroke:#fff;stroke-miterlimit:10;stroke-width:3px"/></g></g></svg>