<svg xmlns="http://www.w3.org/2000/svg" viewBox="0 0 62.65 68.5"><title>Asset 34</title><g id="Layer_2" data-name="Layer 2"><g id="Layer_1-2" data-name="Layer 1"><path d="M16.82,24.3v1.28a3,3,0,0,1-2.08,2.81,17.25,17.25,0,0,0,7.38,9.71,3,3,0,0,1,2.31.24c1.31.68,2,2,1.47,2.95s-1.95,1.15-3.26.47A2.85,2.85,0,0,1,21,39.63a19.08,19.08,0,0,1-8.24-11.31,3,3,0,0,1-1.84-2.74h0V19.46A2.93,2.93,0,0,1,12.28,17a19.17,19.17,0,0,1,38.09,0,3,3,0,0,1,1.35,2.48v6.12a2.95,2.95,0,1,1-5.9,0V24.3l.32-6.17a2.94,2.94,0,0,1,2.24-1.58,17.27,17.27,0,0,0-34.1-.26h0a.77.77,0,0,1,.26,0,.94.94,0,0,1,.48.4,3,3,0,0,1,1.46,1.39Z" style="fill:#fff"/><path d="M62.15,59v9H.5V59c0-4.27,3.68-9.53,8.19-11.66l10-4.76L25.63,57l3.56-9.65a11.67,11.67,0,0,0,2.13.3,11.9,11.9,0,0,0,2.13-.3l3.38,9.17,6.81-14.16L54,47.29c4.49,2.13,8.19,7.39,8.19,11.67Zm-49-41.61" style="fill:none;stroke:#fff;stroke-miterlimit:10"/></g></g></svg>