<svg xmlns="http://www.w3.org/2000/svg" viewBox="0 0 175.33 26.41"><title>new_enAsset 2</title><g id="Layer_2" data-name="Layer 2"><g id="Layer_1-2" data-name="Layer 1"><path d="M16.61,0V16.51a10,10,0,0,1-.75,3.88,9.61,9.61,0,0,1-2.09,3.15,9.72,9.72,0,0,1-3.18,2.11,10.16,10.16,0,0,1-3.94.76,9.25,9.25,0,0,1-3.57-.7A10.92,10.92,0,0,1,0,23.78L.78,23a9.52,9.52,0,0,0,2.63,1.8,7.56,7.56,0,0,0,3.24.7,8.55,8.55,0,0,0,3.52-.73,9.14,9.14,0,0,0,2.86-2,9.3,9.3,0,0,0,1.91-2.9,8.93,8.93,0,0,0,.7-3.5V.91H14.11V0Z" style="fill:#6d6e71"/><path d="M42.4,15.64a10.52,10.52,0,0,1-.84,4.2,10.81,10.81,0,0,1-5.72,5.73,10.45,10.45,0,0,1-4.19.84,10.56,10.56,0,0,1-4.21-.84,10.76,10.76,0,0,1-5.74-5.73,10.87,10.87,0,0,1,0-8.4,10.76,10.76,0,0,1,5.74-5.73,10.56,10.56,0,0,1,4.21-.84,10.45,10.45,0,0,1,4.19.84,10.81,10.81,0,0,1,5.72,5.73A10.52,10.52,0,0,1,42.4,15.64Zm-1,0a9.56,9.56,0,0,0-.78-3.8,10.34,10.34,0,0,0-2.11-3.18,10.2,10.2,0,0,0-3.11-2.17,9,9,0,0,0-3.79-.81,9.15,9.15,0,0,0-3.81.81,10.15,10.15,0,0,0-3.13,2.17,10.34,10.34,0,0,0-2.11,3.18,9.56,9.56,0,0,0-.78,3.8,9.44,9.44,0,0,0,.78,3.78,10.59,10.59,0,0,0,2.11,3.18,10,10,0,0,0,3.11,2.19,9.33,9.33,0,0,0,7.61,0,10,10,0,0,0,3.11-2.19,10.59,10.59,0,0,0,2.11-3.18A9.44,9.44,0,0,0,41.43,15.64Z" style="fill:#6d6e71"/><path d="M67.16,15.64a10.52,10.52,0,0,1-.84,4.2,10.81,10.81,0,0,1-5.72,5.73,10.45,10.45,0,0,1-4.19.84,10.56,10.56,0,0,1-4.21-.84,10.76,10.76,0,0,1-5.74-5.73,10.87,10.87,0,0,1,0-8.4A10.76,10.76,0,0,1,52.2,5.71a10.56,10.56,0,0,1,4.21-.84,10.45,10.45,0,0,1,4.19.84,10.81,10.81,0,0,1,5.72,5.73A10.52,10.52,0,0,1,67.16,15.64Zm-1,0a9.56,9.56,0,0,0-.78-3.8A10.34,10.34,0,0,0,63.3,8.66a10.2,10.2,0,0,0-3.11-2.17,9,9,0,0,0-3.79-.81,9.15,9.15,0,0,0-3.81.81,10.15,10.15,0,0,0-3.13,2.17,10.34,10.34,0,0,0-2.11,3.18,9.56,9.56,0,0,0-.78,3.8,9.44,9.44,0,0,0,.78,3.78,10.59,10.59,0,0,0,2.11,3.18,10,10,0,0,0,3.11,2.19,9.33,9.33,0,0,0,7.61,0A10,10,0,0,0,63.3,22.6a10.59,10.59,0,0,0,2.11-3.18A9.44,9.44,0,0,0,66.19,15.64Z" style="fill:#6d6e71"/><path d="M87.47,7.59l-.68.71a6.4,6.4,0,0,0-1.2-1,9.82,9.82,0,0,0-1.51-.84,8.74,8.74,0,0,0-1.65-.55,7.56,7.56,0,0,0-1.67-.19,8.1,8.1,0,0,0-2.69.52,9.65,9.65,0,0,0-2.73,1.51,8.55,8.55,0,0,0-2.12,2.47,6.67,6.67,0,0,0-.86,3.42l0,12.33h-1V5.39h.94V9.93A9,9,0,0,1,74,7.64a9.92,9.92,0,0,1,2.16-1.57,10,10,0,0,1,2.34-.91,9.42,9.42,0,0,1,2.26-.29,9.1,9.1,0,0,1,3.81.76A10.2,10.2,0,0,1,87.47,7.59Z" style="fill:#6d6e71"/><path d="M103.76,0V16.51a10,10,0,0,1-.75,3.88,9.61,9.61,0,0,1-2.09,3.15,9.72,9.72,0,0,1-3.18,2.11,10.16,10.16,0,0,1-3.94.76,9.25,9.25,0,0,1-3.57-.7,10.92,10.92,0,0,1-3.08-1.93l.78-.78a9.52,9.52,0,0,0,2.63,1.8,7.56,7.56,0,0,0,3.24.7,8.55,8.55,0,0,0,3.52-.73,9.14,9.14,0,0,0,2.86-2,9.3,9.3,0,0,0,1.91-2.9,8.93,8.93,0,0,0,.7-3.5V.91h-1.52V0Z" style="fill:#6d6e71"/><path d="M129.55,15.61V16H109a10.56,10.56,0,0,0,.92,3.7A10.32,10.32,0,0,0,112,22.76a9.89,9.89,0,0,0,3,2.08,9.21,9.21,0,0,0,3.75.76,8.91,8.91,0,0,0,3.31-.62A11.12,11.12,0,0,0,125,23.26l.65.65a11,11,0,0,1-3.23,1.85,10.53,10.53,0,0,1-3.65.65,10.36,10.36,0,0,1-4.2-.86,11,11,0,0,1-5.74-5.74,10.28,10.28,0,0,1-.86-4.17,10.52,10.52,0,0,1,.84-4.2,10.76,10.76,0,0,1,5.74-5.73,10.56,10.56,0,0,1,4.21-.84,10.27,10.27,0,0,1,4.19.86,11,11,0,0,1,5.72,5.76A10.24,10.24,0,0,1,129.55,15.61Zm-1-.42a10.4,10.4,0,0,0-.92-3.67,10,10,0,0,0-5.15-5.08,9.42,9.42,0,0,0-7.45,0A10.34,10.34,0,0,0,112,8.54a10.19,10.19,0,0,0-2.12,3,9.79,9.79,0,0,0-.89,3.6Z" style="fill:#6d6e71"/><path d="M152.49,14.11V25.92h-1V14.21a9.06,9.06,0,0,0-.67-3.55,7.9,7.9,0,0,0-4.45-4.38,8.57,8.57,0,0,0-3.2-.6,7.88,7.88,0,0,0-3.18.67,9.35,9.35,0,0,0-2.71,1.78,8.82,8.82,0,0,0-1.9,2.6,7.1,7.1,0,0,0-.71,3.13V25.92h-1V5.39h1V9.83a9.46,9.46,0,0,1,3.62-3.65,10.31,10.31,0,0,1,2.37-1,9.64,9.64,0,0,1,2.55-.34,9.83,9.83,0,0,1,3.68.68,8.65,8.65,0,0,1,2.94,1.91,8.9,8.9,0,0,1,1.93,2.92A9.68,9.68,0,0,1,152.49,14.11Z" style="fill:#6d6e71"/><path d="M175.33,21.06a3.58,3.58,0,0,1-1,2.6,7.38,7.38,0,0,1-2.47,1.65,12.76,12.76,0,0,1-3.14.86,20.89,20.89,0,0,1-3,.24,19.76,19.76,0,0,1-4.5-.55,13.37,13.37,0,0,1-4.5-2l.75-.75a11.86,11.86,0,0,0,2,1.15,16.55,16.55,0,0,0,2.15.78,14.12,14.12,0,0,0,2.14.44,16.09,16.09,0,0,0,2,.13,17.68,17.68,0,0,0,1.85-.11,14.38,14.38,0,0,0,2.17-.41,11.33,11.33,0,0,0,2.12-.79,5.39,5.39,0,0,0,1.7-1.28,4,4,0,0,0,.52-.84,2.43,2.43,0,0,0,.23-1,2.69,2.69,0,0,0-.65-1.8,5.91,5.91,0,0,0-1.59-1.3,10.48,10.48,0,0,0-2-.88q-1.07-.34-1.91-.54l-5.32-1.2a20.85,20.85,0,0,1-2.34-.71,9.13,9.13,0,0,1-2-1,5,5,0,0,1-1.43-1.48,3.7,3.7,0,0,1-.54-2,3.5,3.5,0,0,1,.89-2.4,7,7,0,0,1,2.25-1.65,12.23,12.23,0,0,1,3-1,16.36,16.36,0,0,1,3-.31,20,20,0,0,1,2.22.13,16.81,16.81,0,0,1,2.29.42,15.1,15.1,0,0,1,2.25.78,10.85,10.85,0,0,1,2.09,1.2l-.74.71A11.49,11.49,0,0,0,171.91,7a14.79,14.79,0,0,0-2.12-.76,16.78,16.78,0,0,0-2.12-.44,14.35,14.35,0,0,0-2-.15,13.4,13.4,0,0,0-1.85.15,13,13,0,0,0-2.07.47,10.71,10.71,0,0,0-2,.84,5.61,5.61,0,0,0-1.55,1.23,4.56,4.56,0,0,0-.5.81,2.29,2.29,0,0,0-.24,1,2.64,2.64,0,0,0,.31,1.28,4,4,0,0,0,.79,1,5,5,0,0,0,1.1.78,9.29,9.29,0,0,0,1.27.55l1.72.55.88.23q.42.1.84.16L169,15.87a21.94,21.94,0,0,1,2.3.71,9.21,9.21,0,0,1,2,1,5.31,5.31,0,0,1,1.44,1.46A3.54,3.54,0,0,1,175.33,21.06Z" style="fill:#6d6e71"/></g></g></svg>