<svg xmlns="http://www.w3.org/2000/svg" viewBox="0 0 29.56 34"><title>Asset 7</title><g id="Layer_2" data-name="Layer 2"><g id="Layer_1-2" data-name="Layer 1"><path d="M10.23,32a8.17,8.17,0,0,0,4.55,1.53A7.65,7.65,0,0,0,19.33,32Z" style="fill:none;stroke:#939598;stroke-miterlimit:10"/><path d="M28,28.26H26.73c0-.53-.11-.32-.11-.42,0-4.76-3.38.05-4.44-11.37V14.41a7.58,7.58,0,0,0-4.74-7.12,3.91,3.91,0,1,0-5.32,0,7.54,7.54,0,0,0-4.74,7.12v2.06C6.32,27.95,2.93,23.08,2.93,27.89c0,.11-.11-.11-.11.42H1.56c-.63,0-1.06.26-1.06.9V30c0,.58.42.9,1.06.9H28c.63,0,1.06-.32,1.06-1v-.79C29.06,28.53,28.63,28.26,28,28.26ZM14.78,2.09a2.33,2.33,0,1,1-2.33,2.33A2.35,2.35,0,0,1,14.78,2.09Z" style="fill:none;stroke:#939598;stroke-miterlimit:10"/></g></g></svg>